<svg width="83" height="13" viewBox="0 0 83 13" fill="none" xmlns="http://www.w3.org/2000/svg">
<path d="M7.44141 1.19531C7.30859 1.60156 7.14062 1.97656 6.9375 2.32031C6.74219 2.66406 6.53125 2.99609 6.30469 3.31641C6.07812 3.62891 5.83984 3.93359 5.58984 4.23047C5.34766 4.52734 5.11328 4.83203 4.88672 5.14453C4.77734 5.21484 4.67969 5.29688 4.59375 5.39062C4.50781 5.47656 4.42188 5.56641 4.33594 5.66016C4.25781 5.75391 4.17578 5.84766 4.08984 5.94141C4.00391 6.02734 3.90625 6.10156 3.79688 6.16406C4.38281 6.5625 4.92578 6.99609 5.42578 7.46484C5.92578 7.92578 6.375 8.44531 6.77344 9.02344C6.74219 9.07812 6.72656 9.14062 6.72656 9.21094C6.72656 9.21875 6.73047 9.22656 6.73828 9.23438V9.26953C6.73828 9.33984 6.72266 9.40234 6.69141 9.45703C6.56641 9.55078 6.46484 9.59766 6.38672 9.59766H6.36328C6.27734 9.58984 6.20312 9.55469 6.14062 9.49219C6.07812 9.42969 6.01953 9.34766 5.96484 9.24609C5.91016 9.14453 5.85156 9.04688 5.78906 8.95312C5.64062 8.72656 5.46875 8.50781 5.27344 8.29688C5.07812 8.08594 4.86719 7.88672 4.64062 7.69922C4.42188 7.50391 4.19141 7.32812 3.94922 7.17188C3.71484 7.00781 3.48047 6.86719 3.24609 6.75C3.07422 6.8125 2.91016 6.88672 2.75391 6.97266C2.60547 7.05078 2.42969 7.10938 2.22656 7.14844C2.19531 7.59375 2.13281 8.04688 2.03906 8.50781C1.95312 8.96094 1.85938 9.42188 1.75781 9.89062C1.6875 9.90625 1.61719 9.92188 1.54688 9.9375C1.48438 9.95312 1.41016 9.96484 1.32422 9.97266C1.16797 9.80859 1.08984 9.63672 1.08984 9.45703V9.43359C1.09766 9.24609 1.13672 9.05078 1.20703 8.84766C1.27734 8.64453 1.35547 8.43359 1.44141 8.21484C1.50391 8.04297 1.53516 7.86719 1.53516 7.6875C1.53516 7.64062 1.53125 7.58984 1.52344 7.53516C1.4375 7.53516 1.34766 7.52734 1.25391 7.51172C1.16797 7.49609 1.07422 7.48047 0.972656 7.46484C0.871094 7.44922 0.765625 7.43359 0.65625 7.41797H0.304688C0.164062 7.27734 0.0703125 7.08594 0.0234375 6.84375C0.0078125 6.77344 0 6.70703 0 6.64453C0 6.48828 0.0390625 6.34375 0.117188 6.21094C0.320312 6.10156 0.53125 6.00391 0.75 5.91797C0.929688 5.84766 1.14844 5.8125 1.40625 5.8125H1.55859C1.55078 5.4375 1.54297 5.03125 1.53516 4.59375C1.53516 4.15625 1.51562 3.71875 1.47656 3.28125C1.44531 2.83594 1.39062 2.40625 1.3125 1.99219C1.23438 1.57812 1.12109 1.20703 0.972656 0.878906C1.05859 0.753906 1.14844 0.671875 1.24219 0.632812C1.28125 0.617187 1.32422 0.609375 1.37109 0.609375C1.41016 0.609375 1.45312 0.617187 1.5 0.632812C1.57812 0.671875 1.64453 0.746094 1.69922 0.855469C1.76172 0.957031 1.80859 1.08203 1.83984 1.23047C1.87891 1.48047 1.93359 1.75391 2.00391 2.05078C2.08203 2.34766 2.12891 2.66016 2.14453 2.98828C2.18359 3.47266 2.20703 3.95703 2.21484 4.44141V4.79297C2.21484 5.12891 2.20703 5.42969 2.19141 5.69531C2.31641 5.75781 2.46094 5.79688 2.625 5.8125C2.78906 5.82812 2.92969 5.86719 3.04688 5.92969C3.17188 5.89062 3.27734 5.83203 3.36328 5.75391C3.45703 5.67578 3.54297 5.59375 3.62109 5.50781C3.70703 5.42188 3.78906 5.33594 3.86719 5.25C3.94531 5.16406 4.03906 5.08984 4.14844 5.02734C4.27344 4.82422 4.41016 4.63672 4.55859 4.46484C4.71484 4.29297 4.86719 4.12109 5.01562 3.94922C5.17188 3.76953 5.31641 3.58594 5.44922 3.39844C5.58203 3.20312 5.69531 2.98828 5.78906 2.75391C5.88281 2.70703 5.95703 2.64453 6.01172 2.56641C6.06641 2.48047 6.13672 2.41406 6.22266 2.36719C6.28516 2.07812 6.37891 1.82812 6.50391 1.61719C6.63672 1.40625 6.77734 1.19922 6.92578 0.996094C6.96484 0.988281 7 0.984375 7.03125 0.984375C7.11719 0.984375 7.1875 1 7.24219 1.03125C7.3125 1.07812 7.37891 1.13281 7.44141 1.19531ZM1.60547 6.71484V6.67969C1.60547 6.5625 1.56641 6.48828 1.48828 6.45703C1.44141 6.44922 1.39453 6.44531 1.34766 6.44531C1.29297 6.44531 1.23438 6.45312 1.17188 6.46875C1.05469 6.5 0.941406 6.55078 0.832031 6.62109C0.722656 6.68359 0.652344 6.74219 0.621094 6.79688C0.761719 6.8125 0.929688 6.82422 1.125 6.83203H1.17188C1.34375 6.83203 1.48828 6.79297 1.60547 6.71484ZM15.8438 5.74219C15.8203 6.03125 15.7617 6.30469 15.668 6.5625C15.5742 6.8125 15.457 7.05078 15.3164 7.27734C15.1836 7.50391 15.0391 7.71875 14.8828 7.92188C14.7266 8.11719 14.5781 8.30469 14.4375 8.48438C13.8828 8.82812 13.2695 9.13281 12.5977 9.39844C11.9336 9.67188 11.2148 9.83594 10.4414 9.89062C10.4258 10 10.375 10.0859 10.2891 10.1484C10.2031 10.2188 10.1094 10.2578 10.0078 10.2656H9.97266C9.88672 10.2656 9.80859 10.2383 9.73828 10.1836C9.66016 10.1289 9.62109 10.0312 9.62109 9.89062C9.52734 9.85938 9.41406 9.82422 9.28125 9.78516C9.14844 9.74609 9.01172 9.70312 8.87109 9.65625C8.73828 9.60938 8.61328 9.55469 8.49609 9.49219C8.37891 9.4375 8.28906 9.37109 8.22656 9.29297C8.17969 9.23828 8.15625 9.17578 8.15625 9.10547C8.15625 9.08203 8.16016 9.05859 8.16797 9.03516C8.18359 8.94141 8.26172 8.83594 8.40234 8.71875C8.51172 8.72656 8.60547 8.75 8.68359 8.78906C8.76953 8.82031 8.85156 8.85547 8.92969 8.89453C9.00781 8.93359 9.08594 8.97266 9.16406 9.01172C9.25 9.04297 9.34766 9.0625 9.45703 9.07031V8.84766C9.45703 8.59766 9.44922 8.33984 9.43359 8.07422C9.40234 7.74609 9.36719 7.41406 9.32812 7.07812C9.28906 6.74219 9.25391 6.40234 9.22266 6.05859C9.19922 5.79297 9.1875 5.52344 9.1875 5.25V5.03906C9.20312 4.45312 9.23438 3.88672 9.28125 3.33984C9.33594 2.79297 9.39453 2.26172 9.45703 1.74609H9.39844C9.27344 1.74609 9.14844 1.76562 9.02344 1.80469C8.86719 1.85156 8.71094 1.90234 8.55469 1.95703C8.40625 2.00391 8.25781 2.04297 8.10938 2.07422C8.03906 2.08984 7.97266 2.09766 7.91016 2.09766C7.82422 2.09766 7.73828 2.08594 7.65234 2.0625C7.62891 2 7.61719 1.92969 7.61719 1.85156V1.78125C7.625 1.67969 7.65234 1.60156 7.69922 1.54688C7.86328 1.52344 8.01953 1.48828 8.16797 1.44141C8.31641 1.39453 8.46094 1.34766 8.60156 1.30078C8.74219 1.25391 8.88672 1.21094 9.03516 1.17188C9.19141 1.125 9.35938 1.09375 9.53906 1.07812C9.61719 1.03125 9.67188 0.960938 9.70312 0.867188C9.73438 0.765625 9.75781 0.660156 9.77344 0.550781C9.78906 0.441406 9.80859 0.339844 9.83203 0.246094C9.86328 0.144531 9.92188 0.0703125 10.0078 0.0234375C10.0547 0.0078125 10.0977 0 10.1367 0C10.1992 0 10.25 0.015625 10.2891 0.046875C10.3594 0.09375 10.4102 0.160156 10.4414 0.246094C10.457 0.308594 10.4648 0.371094 10.4648 0.433594C10.4648 0.472656 10.4609 0.511719 10.4531 0.550781C10.4375 0.660156 10.4062 0.757812 10.3594 0.84375C10.4844 0.898437 10.6055 0.929688 10.7227 0.9375H10.8633C10.9336 0.9375 11.0039 0.933594 11.0742 0.925781C11.1914 0.917969 11.3125 0.90625 11.4375 0.890625C11.5156 0.882813 11.5977 0.878906 11.6836 0.878906H11.8125C12.0469 0.902344 12.2695 0.953125 12.4805 1.03125C12.6914 1.10938 12.8945 1.19922 13.0898 1.30078C13.2852 1.39453 13.4766 1.49219 13.6641 1.59375C13.8516 1.6875 14.043 1.76562 14.2383 1.82812C14.3242 1.95312 14.4258 2.07812 14.543 2.20312C14.668 2.32812 14.7891 2.45703 14.9062 2.58984C15.0312 2.72266 15.1484 2.86328 15.2578 3.01172C15.3672 3.15234 15.457 3.30469 15.5273 3.46875C15.6602 3.76562 15.7539 4.11328 15.8086 4.51172C15.8398 4.76172 15.8555 5.01953 15.8555 5.28516C15.8555 5.43359 15.8516 5.58594 15.8438 5.74219ZM15.1758 4.60547C15.168 4.55078 15.1523 4.47656 15.1289 4.38281C15.1055 4.28906 15.0781 4.19531 15.0469 4.10156C15.0156 4 14.9844 3.90234 14.9531 3.80859C14.9219 3.71484 14.8945 3.64062 14.8711 3.58594C14.8086 3.46094 14.7227 3.32812 14.6133 3.1875C14.5117 3.04688 14.4023 2.91406 14.2852 2.78906C14.168 2.65625 14.0508 2.53906 13.9336 2.4375C13.8164 2.33594 13.7109 2.26172 13.6172 2.21484C13.5391 2.17578 13.4414 2.14062 13.3242 2.10938C13.2148 2.07031 13.1016 2.02734 12.9844 1.98047C12.8906 1.94141 12.8047 1.90234 12.7266 1.86328C12.6484 1.82422 12.5703 1.78906 12.4922 1.75781C12.4141 1.72656 12.3281 1.69922 12.2344 1.67578C12.1484 1.64453 12.0469 1.61719 11.9297 1.59375C11.6406 1.53125 11.3555 1.5 11.0742 1.5C10.793 1.5 10.4883 1.54297 10.1602 1.62891C10.0352 2.22266 9.95312 2.84375 9.91406 3.49219C9.875 3.97656 9.85547 4.45703 9.85547 4.93359C9.85547 5.11328 9.85938 5.28906 9.86719 5.46094C9.88281 6.11719 9.92188 6.76172 9.98438 7.39453C10.0547 8.02734 10.1406 8.625 10.2422 9.1875H10.4414C10.7695 9.1875 11.0781 9.15625 11.3672 9.09375C11.7188 9.01562 12.0469 8.91406 12.3516 8.78906C12.6641 8.65625 12.9609 8.51172 13.2422 8.35547C13.5312 8.19922 13.8125 8.04688 14.0859 7.89844C14.2812 7.69531 14.457 7.46875 14.6133 7.21875C14.7773 6.96875 14.9062 6.70312 15 6.42188C15.1016 6.14062 15.1719 5.84766 15.2109 5.54297C15.2188 5.42578 15.2227 5.30469 15.2227 5.17969C15.2227 4.99219 15.207 4.80078 15.1758 4.60547ZM25.3125 6.82031C25.2109 6.82031 25.1211 6.8125 25.043 6.79688C24.9648 6.77344 24.8867 6.75 24.8086 6.72656C24.7305 6.70312 24.6484 6.68359 24.5625 6.66797C24.5234 6.66016 24.4766 6.65625 24.4219 6.65625C24.375 6.65625 24.3203 6.66016 24.2578 6.66797C24.2188 6.81641 24.1992 6.96484 24.1992 7.11328C24.1992 7.23047 24.2109 7.34375 24.2344 7.45312C24.2812 7.72656 24.3398 8.00391 24.4102 8.28516C24.4805 8.55859 24.543 8.83984 24.5977 9.12891C24.6289 9.28516 24.6445 9.44141 24.6445 9.59766C24.6445 9.73047 24.6328 9.86328 24.6094 9.99609C24.5156 10.0352 24.4023 10.0586 24.2695 10.0664H24.2344C24.1172 10.0664 24.0312 10.0273 23.9766 9.94922C23.9688 9.67578 23.9414 9.40234 23.8945 9.12891C23.8555 8.85547 23.8086 8.58203 23.7539 8.30859C23.6992 8.02734 23.6445 7.75 23.5898 7.47656C23.543 7.19531 23.5039 6.91016 23.4727 6.62109C22.6445 6.62891 21.8516 6.67969 21.0938 6.77344C20.3359 6.86719 19.6016 7.01172 18.8906 7.20703C18.8516 7.41016 18.8203 7.62891 18.7969 7.86328C18.7734 8.09766 18.7539 8.33594 18.7383 8.57812C18.7227 8.8125 18.7031 9.04297 18.6797 9.26953C18.6641 9.49609 18.6406 9.69922 18.6094 9.87891C18.5391 9.93359 18.457 9.98047 18.3633 10.0195C18.3086 10.043 18.2539 10.0547 18.1992 10.0547C18.1602 10.0547 18.1172 10.0469 18.0703 10.0312C18.0156 9.875 17.9883 9.70312 17.9883 9.51562C17.9883 9.5 17.9922 9.48438 18 9.46875C18 9.26562 18.0156 9.05469 18.0469 8.83594C18.0781 8.60938 18.1094 8.38281 18.1406 8.15625C18.1719 7.92188 18.1875 7.69922 18.1875 7.48828C18.1406 7.47266 18.0938 7.46484 18.0469 7.46484C17.9766 7.46484 17.9062 7.48047 17.8359 7.51172C17.7109 7.55859 17.5898 7.61719 17.4727 7.6875C17.3633 7.75781 17.2578 7.82031 17.1562 7.875C17.0859 7.91406 17.0195 7.93359 16.957 7.93359C16.9336 7.93359 16.9102 7.92969 16.8867 7.92188C16.8086 7.89844 16.7422 7.84766 16.6875 7.76953C16.6484 7.72266 16.6289 7.67188 16.6289 7.61719C16.6289 7.57812 16.6367 7.53516 16.6523 7.48828C16.6758 7.41016 16.7617 7.34375 16.9102 7.28906C17.0586 7.22656 17.2188 7.16797 17.3906 7.11328C17.5703 7.05859 17.7383 7.00781 17.8945 6.96094C18.0586 6.90625 18.168 6.84766 18.2227 6.78516C18.2617 6.35547 18.2891 5.92969 18.3047 5.50781V5.19141C18.3047 4.87891 18.293 4.57422 18.2695 4.27734C18.2305 3.87891 18.168 3.5 18.082 3.14062C17.9961 2.77344 17.8711 2.43359 17.707 2.12109C17.6523 2.00391 17.5898 1.88672 17.5195 1.76953C17.457 1.64453 17.4062 1.51953 17.3672 1.39453C17.3281 1.30078 17.3086 1.21094 17.3086 1.125C17.3086 1.10156 17.3125 1.07812 17.3203 1.05469C17.3281 0.953125 17.3789 0.863281 17.4727 0.785156C17.6836 0.785156 17.8438 0.855469 17.9531 0.996094C18.0625 1.13672 18.1523 1.30469 18.2227 1.5C18.293 1.69531 18.3594 1.89453 18.4219 2.09766C18.4844 2.30078 18.5742 2.46484 18.6914 2.58984C18.8164 3.23047 18.8867 3.88281 18.9023 4.54688C18.9258 5.21094 18.9453 5.89062 18.9609 6.58594C19.625 6.42188 20.3242 6.28125 21.0586 6.16406C21.6289 6.07031 22.2344 6.02344 22.875 6.02344C23.0469 6.02344 23.2188 6.02734 23.3906 6.03516V5.87109C23.3906 5.70703 23.3984 5.54297 23.4141 5.37891C23.4375 5.16016 23.4648 4.94141 23.4961 4.72266C23.5273 4.49609 23.5547 4.27344 23.5781 4.05469C23.6094 3.82812 23.625 3.60156 23.625 3.375C23.625 2.92969 23.6836 2.48047 23.8008 2.02734C23.9258 1.56641 24.0781 1.15234 24.2578 0.785156C24.3047 0.683594 24.3438 0.585938 24.375 0.492188C24.4141 0.390625 24.457 0.304688 24.5039 0.234375C24.5508 0.15625 24.6133 0.09375 24.6914 0.046875C24.7539 0.015625 24.8359 0 24.9375 0H24.9961C25.0742 0.078125 25.1133 0.175781 25.1133 0.292969C25.1133 0.324219 25.1094 0.359375 25.1016 0.398438C25.0703 0.5625 25.0117 0.738281 24.9258 0.925781C24.8398 1.11328 24.7461 1.29688 24.6445 1.47656C24.543 1.65625 24.4766 1.81641 24.4453 1.95703C24.3047 2.57422 24.2148 3.22266 24.1758 3.90234C24.1367 4.57422 24.1094 5.25781 24.0938 5.95312C24.2578 5.95312 24.4453 5.96875 24.6562 6C24.875 6.03125 25.0625 6.08203 25.2188 6.15234C25.375 6.21484 25.4766 6.30078 25.5234 6.41016C25.5312 6.43359 25.5352 6.45703 25.5352 6.48047C25.5352 6.57422 25.4609 6.6875 25.3125 6.82031ZM37.6992 7.67578C37.668 7.72266 37.625 7.78125 37.5703 7.85156C37.5234 7.92188 37.4688 7.99219 37.4062 8.0625C37.3516 8.13281 37.2969 8.19922 37.2422 8.26172C37.1875 8.31641 37.1367 8.35938 37.0898 8.39062C37.0508 8.41406 36.9922 8.44141 36.9141 8.47266C36.8438 8.49609 36.7656 8.52344 36.6797 8.55469C36.5938 8.57812 36.5039 8.60156 36.4102 8.625C36.3242 8.64844 36.25 8.66797 36.1875 8.68359C36.1484 8.69141 36.1133 8.71094 36.082 8.74219C36.0586 8.76562 36.0352 8.78125 36.0117 8.78906H35.9766C35.9375 8.78906 35.9062 8.78125 35.8828 8.76562C35.8516 8.75781 35.8125 8.75391 35.7656 8.75391H35.7188C35.6406 8.76172 35.5625 8.78125 35.4844 8.8125C35.4141 8.84375 35.3477 8.85938 35.2852 8.85938C35.1758 8.85938 35.043 8.83594 34.8867 8.78906C34.7305 8.74219 34.5977 8.69531 34.4883 8.64844C34.4023 8.60156 34.3281 8.54297 34.2656 8.47266C34.2031 8.39453 34.1211 8.32031 34.0195 8.25C33.9258 8.17969 33.8359 8.12109 33.75 8.07422C33.6719 8.01953 33.6055 7.96484 33.5508 7.91016C33.4961 7.84766 33.4688 7.77344 33.4688 7.6875L33.457 7.67578C33.457 7.58984 33.4883 7.48047 33.5508 7.34766C33.6289 7.32422 33.6992 7.3125 33.7617 7.3125C33.832 7.3125 33.8945 7.32422 33.9492 7.34766C34.0508 7.41016 34.1445 7.49219 34.2305 7.59375C34.3164 7.6875 34.4023 7.78516 34.4883 7.88672C34.582 7.98828 34.6914 8.05859 34.8164 8.09766C35.0508 8.17578 35.2773 8.21484 35.4961 8.21484C35.6367 8.21484 35.7734 8.19531 35.9062 8.15625C36.2422 8.07812 36.5312 7.92969 36.7734 7.71094C37.0234 7.48438 37.2188 7.20703 37.3594 6.87891C37.5078 6.55078 37.5859 6.20312 37.5938 5.83594V5.75391C37.5938 5.52734 37.5664 5.32031 37.5117 5.13281C37.4492 4.92969 37.3672 4.74219 37.2656 4.57031C37.1641 4.39844 37.0469 4.24219 36.9141 4.10156C36.7812 3.95312 36.6484 3.80859 36.5156 3.66797C36.1484 3.47266 35.7852 3.375 35.4258 3.375C35.3789 3.375 35.332 3.37891 35.2852 3.38672C34.8789 3.41797 34.4844 3.52344 34.1016 3.70312C33.8438 3.82031 33.5898 3.94531 33.3398 4.07812C33.0898 4.20312 32.8867 4.36719 32.7305 4.57031C32.8164 4.98438 32.8945 5.41406 32.9648 5.85938C33.043 6.29688 33.1016 6.74219 33.1406 7.19531C33.1641 7.53906 33.1758 7.88672 33.1758 8.23828V8.58984C33.1602 9.06641 33.1055 9.54297 33.0117 10.0195C32.9805 10.1836 32.9531 10.3516 32.9297 10.5234C32.9062 10.6953 32.8789 10.8594 32.8477 11.0156C32.8242 11.1797 32.7891 11.332 32.7422 11.4727C32.7031 11.6133 32.6484 11.7383 32.5781 11.8477C32.4844 11.9883 32.3516 12.1055 32.1797 12.1992C32.0078 12.293 31.832 12.3477 31.6523 12.3633H31.5703C31.4219 12.3633 31.2852 12.3281 31.1602 12.2578C31.0039 12.1797 30.9023 12.0312 30.8555 11.8125C30.7148 11.1953 30.6406 10.5547 30.6328 9.89062V9.76172C30.6328 9.14453 30.6836 8.53906 30.7852 7.94531C30.8867 7.30469 31.043 6.69531 31.2539 6.11719C31.4648 5.53906 31.7148 5.02344 32.0039 4.57031C32.0039 4.40625 31.957 4.23828 31.8633 4.06641C31.7773 3.89453 31.6953 3.73047 31.6172 3.57422C31.5391 3.41797 31.4961 3.26562 31.4883 3.11719C31.4805 3.10938 31.4766 3.10156 31.4766 3.09375C31.4766 2.96094 31.543 2.83984 31.6758 2.73047C31.7305 2.76953 31.793 2.79297 31.8633 2.80078C31.9414 2.80859 32 2.83203 32.0391 2.87109C32.0781 3.07422 32.1367 3.25781 32.2148 3.42188C32.3008 3.57812 32.3867 3.73047 32.4727 3.87891C32.5898 3.83984 32.6992 3.78906 32.8008 3.72656C32.9023 3.65625 33.0039 3.58594 33.1055 3.51562C33.2148 3.44531 33.3203 3.37891 33.4219 3.31641C33.5312 3.25391 33.6484 3.20312 33.7734 3.16406C33.8125 3.14844 33.8555 3.14062 33.9023 3.14062H33.9375C33.9453 3.14844 33.957 3.15234 33.9727 3.15234C34.0117 3.15234 34.0547 3.14453 34.1016 3.12891C34.2031 3.08984 34.3047 3.04297 34.4062 2.98828C34.5156 2.93359 34.6289 2.88672 34.7461 2.84766C34.8711 2.80078 35.0078 2.76172 35.1562 2.73047C35.2266 2.72266 35.3086 2.71875 35.4023 2.71875C35.4805 2.71875 35.5625 2.72266 35.6484 2.73047C35.9062 2.80078 36.1289 2.87109 36.3164 2.94141C36.5039 3.00391 36.6719 3.08203 36.8203 3.17578C36.9766 3.26953 37.1211 3.38281 37.2539 3.51562C37.3867 3.64062 37.5234 3.80078 37.6641 3.99609C37.8359 4.23828 37.9688 4.51172 38.0625 4.81641C38.1641 5.11328 38.2188 5.42188 38.2266 5.74219V5.78906C38.2266 6.10156 38.1875 6.41406 38.1094 6.72656C38.0234 7.05469 37.8867 7.37109 37.6992 7.67578ZM32.4375 9.83203C32.4766 9.52734 32.5078 9.19531 32.5312 8.83594C32.5391 8.58594 32.543 8.33594 32.543 8.08594V7.78125C32.5352 7.42969 32.5195 7.09766 32.4961 6.78516C32.4727 6.47266 32.4414 6.20312 32.4023 5.97656C32.3789 5.85156 32.3398 5.72656 32.2852 5.60156C32.2305 5.47656 32.1953 5.41016 32.1797 5.40234C32.1641 5.41016 32.1523 5.42578 32.1445 5.44922C32.1367 5.47266 32.125 5.49219 32.1094 5.50781C31.9766 5.82031 31.8477 6.17578 31.7227 6.57422C31.5977 6.97266 31.4883 7.39062 31.3945 7.82812C31.3008 8.26562 31.2344 8.71094 31.1953 9.16406C31.1641 9.42969 31.1484 9.69141 31.1484 9.94922C31.1484 10.1289 31.1562 10.3086 31.1719 10.4883C31.1875 10.707 31.2227 10.9336 31.2773 11.168C31.3398 11.4023 31.4609 11.5938 31.6406 11.7422C31.7812 11.7188 31.8945 11.6406 31.9805 11.5078C32.0742 11.375 32.1484 11.2148 32.2031 11.0273C32.2656 10.8477 32.3125 10.6484 32.3438 10.4297C32.3828 10.2188 32.4141 10.0195 32.4375 9.83203ZM45.6797 5.23828C45.7422 5.57422 45.7734 5.88672 45.7734 6.17578C45.7734 6.44922 45.7461 6.70312 45.6914 6.9375C45.5742 7.42969 45.3672 7.84766 45.0703 8.19141C44.7812 8.53516 44.4141 8.8125 43.9688 9.02344C43.5312 9.22656 43.0547 9.375 42.5391 9.46875C42.0156 9.45312 41.5352 9.38672 41.0977 9.26953C40.668 9.15234 40.2891 8.96875 39.9609 8.71875C39.8203 8.61719 39.7031 8.49609 39.6094 8.35547C39.5234 8.20703 39.4453 8.05469 39.375 7.89844C39.3047 7.74219 39.2344 7.58203 39.1641 7.41797C39.1016 7.24609 39.0273 7.07812 38.9414 6.91406C39.0039 6.52344 39.0664 6.13672 39.1289 5.75391C39.1914 5.37109 39.2852 5.01562 39.4102 4.6875C39.5898 4.46875 39.7969 4.25 40.0312 4.03125C40.2656 3.8125 40.5234 3.62109 40.8047 3.45703C41.0859 3.28516 41.3867 3.15625 41.707 3.07031C41.9258 3.00781 42.1523 2.97656 42.3867 2.97656C42.4883 2.97656 42.5938 2.98438 42.7031 3C42.8281 3.01562 42.9727 3.04688 43.1367 3.09375C43.3086 3.14062 43.4766 3.19531 43.6406 3.25781C43.8125 3.32031 43.9727 3.39062 44.1211 3.46875C44.2773 3.54688 44.4023 3.625 44.4961 3.70312C44.5742 3.77344 44.6445 3.84766 44.707 3.92578C44.7695 4.00391 44.8281 4.08594 44.8828 4.17188C44.9453 4.25 45.0117 4.32422 45.082 4.39453C45.1602 4.46484 45.2539 4.52344 45.3633 4.57031C45.418 4.67969 45.4648 4.79688 45.5039 4.92188C45.5508 5.03906 45.6094 5.14453 45.6797 5.23828ZM45.0938 6.96094C45.1172 6.82031 45.1289 6.67969 45.1289 6.53906C45.1289 6.42969 45.125 6.31641 45.1172 6.19922C45.0781 5.93359 45.0547 5.67578 45.0469 5.42578C44.9297 5.34766 44.8281 5.25 44.7422 5.13281C44.6562 5.01562 44.5742 4.89453 44.4961 4.76953C44.418 4.64453 44.3359 4.52344 44.25 4.40625C44.1719 4.28906 44.0742 4.1875 43.957 4.10156C43.707 4.00781 43.4688 3.91016 43.2422 3.80859C43.0234 3.69922 42.7891 3.64062 42.5391 3.63281H42.4688C42.1562 3.63281 41.8906 3.68359 41.6719 3.78516C41.4297 3.89453 41.1992 4.02344 40.9805 4.17188C40.8242 4.28125 40.6836 4.38281 40.5586 4.47656C40.4336 4.57031 40.3203 4.67188 40.2188 4.78125C40.125 4.89062 40.0391 5.01172 39.9609 5.14453C39.8828 5.26953 39.8164 5.41797 39.7617 5.58984C39.6914 5.88672 39.6562 6.16797 39.6562 6.43359C39.6562 6.62891 39.6758 6.81641 39.7148 6.99609C39.8086 7.41797 39.9922 7.78516 40.2656 8.09766C40.4297 8.18359 40.6016 8.27734 40.7812 8.37891C40.9609 8.47266 41.1484 8.55859 41.3438 8.63672C41.5469 8.70703 41.7539 8.75781 41.9648 8.78906C42.0742 8.8125 42.1875 8.82422 42.3047 8.82422C42.4062 8.82422 42.5117 8.81641 42.6211 8.80078C42.8867 8.76172 43.1562 8.6875 43.4297 8.57812C43.7031 8.46875 43.9531 8.33203 44.1797 8.16797C44.4062 8.00391 44.6016 7.82031 44.7656 7.61719C44.9297 7.41406 45.0391 7.19531 45.0938 6.96094ZM52.3008 4.21875C52.168 4.28906 52.0586 4.32422 51.9727 4.32422C51.9414 4.32422 51.918 4.31641 51.9023 4.30078C51.8164 4.26953 51.7539 4.20703 51.7148 4.11328C51.6836 4.01953 51.6562 3.91406 51.6328 3.79688C51.6094 3.67188 51.5547 3.57422 51.4688 3.50391C51.4062 3.44922 51.3477 3.41797 51.293 3.41016C51.2461 3.39453 51.1992 3.38672 51.1523 3.38672C51.1055 3.37891 51.0508 3.375 50.9883 3.375C50.9336 3.36719 50.8633 3.34375 50.7773 3.30469C50.5898 3.38281 50.3945 3.45312 50.1914 3.51562C49.9883 3.57031 49.793 3.63672 49.6055 3.71484C49.418 3.78516 49.2422 3.87109 49.0781 3.97266C48.9219 4.06641 48.7969 4.1875 48.7031 4.33594C48.7344 4.77344 48.7812 5.19922 48.8438 5.61328C48.9141 6.02734 48.9727 6.4375 49.0195 6.84375C49.0664 7.24219 49.0977 7.64844 49.1133 8.0625V8.23828C49.1133 8.59766 49.082 8.96484 49.0195 9.33984C48.9414 9.46484 48.8359 9.5625 48.7031 9.63281C48.5703 9.71094 48.4297 9.78516 48.2812 9.85547C48 9.83984 47.7852 9.76172 47.6367 9.62109C47.4961 9.48047 47.3906 9.30859 47.3203 9.10547C47.25 8.91016 47.1992 8.70312 47.168 8.48438C47.1367 8.26562 47.0938 8.06641 47.0391 7.88672C47.1016 7.60547 47.1406 7.3125 47.1562 7.00781C47.1719 6.70312 47.1953 6.41016 47.2266 6.12891C47.2656 5.83984 47.332 5.57422 47.4258 5.33203C47.5273 5.08984 47.6914 4.89062 47.918 4.73438C47.9492 4.65625 47.9648 4.57422 47.9648 4.48828C47.9648 4.44141 47.9609 4.39062 47.9531 4.33594C47.9219 4.19531 47.875 4.05469 47.8125 3.91406C47.7578 3.76562 47.6992 3.625 47.6367 3.49219C47.5742 3.35938 47.5352 3.23047 47.5195 3.10547C47.5117 3.07422 47.5078 3.04297 47.5078 3.01172C47.5078 2.92578 47.5234 2.85156 47.5547 2.78906C47.6016 2.69531 47.707 2.62109 47.8711 2.56641C47.957 2.62109 48.0234 2.6875 48.0703 2.76562C48.125 2.84375 48.1719 2.92969 48.2109 3.02344C48.2578 3.11719 48.2969 3.21484 48.3281 3.31641C48.3672 3.41016 48.4141 3.5 48.4688 3.58594C48.7266 3.50781 48.9883 3.40625 49.2539 3.28125C49.5273 3.14844 49.8516 3.03906 50.2266 2.95312C50.3281 2.92969 50.4258 2.89453 50.5195 2.84766C50.6133 2.80078 50.6992 2.76953 50.7773 2.75391C50.8555 2.74609 50.9297 2.74219 51 2.74219C51.1641 2.74219 51.3242 2.75781 51.4805 2.78906C51.707 2.84375 51.8945 2.93359 52.043 3.05859C52.1992 3.18359 52.3047 3.34375 52.3594 3.53906C52.3828 3.60938 52.3945 3.68359 52.3945 3.76172C52.3945 3.90234 52.3633 4.05469 52.3008 4.21875ZM48.2812 9.1875C48.3438 8.92969 48.3789 8.64062 48.3867 8.32031V8.13281C48.3867 7.875 48.375 7.61328 48.3516 7.34766C48.3203 7.01172 48.2773 6.68359 48.2227 6.36328C48.168 6.03516 48.1094 5.73828 48.0469 5.47266C47.9531 5.71484 47.8711 6.01172 47.8008 6.36328C47.7305 6.71484 47.6953 7.07031 47.6953 7.42969C47.6953 7.78906 47.7383 8.12891 47.8242 8.44922C47.9102 8.76953 48.0625 9.01562 48.2812 9.1875ZM56.9648 3.02344C57.0742 3.17969 57.1289 3.30078 57.1289 3.38672V3.41016C57.1133 3.50391 57.0547 3.57031 56.9531 3.60938C56.8594 3.64844 56.7344 3.67188 56.5781 3.67969C56.4297 3.67969 56.2734 3.67969 56.1094 3.67969C55.9375 3.67969 55.7773 3.6875 55.6289 3.70312C55.4805 3.71094 55.3633 3.74219 55.2773 3.79688C55.1758 4.20312 55.125 4.62891 55.125 5.07422C55.1172 5.10547 55.1133 5.13672 55.1133 5.16797C55.1133 5.58203 55.1445 5.99219 55.207 6.39844C55.2617 6.83594 55.3398 7.25 55.4414 7.64062C55.5508 8.03125 55.668 8.37109 55.793 8.66016C55.8867 8.73828 55.9688 8.85156 56.0391 9C56.1172 9.14062 56.2305 9.27344 56.3789 9.39844C56.4414 9.45312 56.5039 9.5 56.5664 9.53906C56.6367 9.57812 56.6992 9.61719 56.7539 9.65625C56.8086 9.70312 56.8516 9.75391 56.8828 9.80859C56.9062 9.85547 56.918 9.91016 56.918 9.97266V10.0312C56.9102 10.1484 56.8594 10.2383 56.7656 10.3008C56.6875 10.3555 56.6055 10.3828 56.5195 10.3828H56.4492C56.3789 10.3672 56.3281 10.3242 56.2969 10.2539C56.2656 10.1914 56.1992 10.1172 56.0977 10.0312C56.0586 9.99219 56.0039 9.96094 55.9336 9.9375C55.8711 9.92188 55.8242 9.90234 55.793 9.87891C55.6758 9.77734 55.5664 9.64844 55.4648 9.49219C55.3711 9.34375 55.2812 9.1875 55.1953 9.02344C55.1172 8.85938 55.043 8.69141 54.9727 8.51953C54.9102 8.34766 54.8555 8.18359 54.8086 8.02734C54.7461 7.84766 54.6875 7.64844 54.6328 7.42969C54.5781 7.21094 54.5312 6.96875 54.4922 6.70312C54.4766 6.57031 54.4688 6.4375 54.4688 6.30469C54.4688 6.21875 54.4727 6.13672 54.4805 6.05859C54.4883 5.92578 54.4922 5.78906 54.4922 5.64844V5.44922C54.4844 5.23047 54.4727 4.99219 54.457 4.73438C54.4492 4.66406 54.4453 4.58984 54.4453 4.51172C54.4453 4.33203 54.4609 4.14844 54.4922 3.96094C54.4688 3.95312 54.4414 3.94922 54.4102 3.94922C54.3242 3.94922 54.2305 3.98047 54.1289 4.04297C53.9883 4.12109 53.8398 4.21094 53.6836 4.3125C53.5352 4.40625 53.3867 4.49219 53.2383 4.57031C53.1055 4.63281 52.9844 4.66406 52.875 4.66406H52.8047C52.6953 4.64844 52.6172 4.59766 52.5703 4.51172C52.5234 4.44141 52.5 4.37109 52.5 4.30078C52.5 4.28516 52.5039 4.26562 52.5117 4.24219C52.5195 4.15625 52.5664 4.08203 52.6523 4.01953C52.707 3.97266 52.7852 3.94922 52.8867 3.94922C52.9258 3.94922 52.9648 3.95312 53.0039 3.96094C53.2227 3.78125 53.4688 3.64062 53.7422 3.53906C54.0234 3.4375 54.3125 3.34375 54.6094 3.25781C54.6484 2.94531 54.707 2.60547 54.7852 2.23828C54.8711 1.87109 54.9453 1.51562 55.0078 1.17188C55.0234 1.08594 55.0312 1 55.0312 0.914062C55.0312 0.835938 55.0352 0.761719 55.043 0.691406C55.0508 0.613281 55.0664 0.546875 55.0898 0.492188C55.1211 0.4375 55.1719 0.390625 55.2422 0.351562C55.2812 0.367188 55.3281 0.375 55.3828 0.375C55.4297 0.375 55.4766 0.378906 55.5234 0.386719C55.5703 0.394531 55.6133 0.410156 55.6523 0.433594C55.6914 0.457031 55.7227 0.496094 55.7461 0.550781C55.6758 0.902344 55.6016 1.30078 55.5234 1.74609C55.4531 2.18359 55.3984 2.62109 55.3594 3.05859C55.4531 3.06641 55.5469 3.07031 55.6406 3.07031C55.8047 3.07031 55.9805 3.05859 56.168 3.03516C56.3477 3.01953 56.5195 3.01172 56.6836 3.01172C56.7773 3.01172 56.8711 3.01562 56.9648 3.02344ZM63.5742 2.63672C63.5352 2.69922 63.4883 2.76172 63.4336 2.82422C63.3867 2.88672 63.332 2.9375 63.2695 2.97656C63.207 3.01562 63.1445 3.03516 63.082 3.03516C63.0742 3.03516 63.0664 3.03125 63.0586 3.02344C62.9883 3.02344 62.9141 2.98828 62.8359 2.91797C62.8281 2.87109 62.8242 2.82812 62.8242 2.78906C62.8242 2.71094 62.8398 2.64062 62.8711 2.57812C62.918 2.49219 62.9727 2.41016 63.0352 2.33203C63.0977 2.25391 63.1562 2.17188 63.2109 2.08594C63.2734 2 63.3047 1.89844 63.3047 1.78125C63.2969 1.58594 63.2188 1.41406 63.0703 1.26562C62.9219 1.11719 62.7383 1.00391 62.5195 0.925781C62.3086 0.839844 62.082 0.789063 61.8398 0.773438H61.7461C61.543 0.773438 61.3555 0.808594 61.1836 0.878906C61.0352 0.941406 60.8984 1.02734 60.7734 1.13672C60.6484 1.24609 60.5234 1.36719 60.3984 1.5C60.1719 1.75 59.9766 2.0625 59.8125 2.4375C59.6484 2.80469 59.5586 3.21094 59.543 3.65625C59.6055 3.74219 59.6836 3.79688 59.7773 3.82031C59.8398 3.83594 59.9102 3.84375 59.9883 3.84375H60.0586C60.1602 3.83594 60.2656 3.82422 60.375 3.80859C60.4844 3.78516 60.5977 3.77344 60.7148 3.77344C60.7852 3.83594 60.8516 3.90234 60.9141 3.97266C60.9688 4.03516 60.9961 4.125 60.9961 4.24219V4.28906C60.9102 4.35156 60.8125 4.38672 60.7031 4.39453C60.6328 4.40234 60.5586 4.40625 60.4805 4.40625H60.3398C60.207 4.39844 60.0742 4.38672 59.9414 4.37109C59.8477 4.36328 59.7578 4.35938 59.6719 4.35938H59.543C59.5117 4.60938 59.4961 4.85547 59.4961 5.09766C59.4961 5.19922 59.5 5.29688 59.5078 5.39062C59.5234 5.72656 59.5547 6.05859 59.6016 6.38672C59.6562 6.70703 59.7227 7.02734 59.8008 7.34766C59.8789 7.66016 59.9609 7.97266 60.0469 8.28516C60.0469 8.48828 60.0664 8.67969 60.1055 8.85938C60.1523 9.03125 60.1992 9.20312 60.2461 9.375C60.3008 9.54688 60.3477 9.71484 60.3867 9.87891C60.4023 9.98047 60.4102 10.0898 60.4102 10.207C60.4102 10.2773 60.4062 10.3516 60.3984 10.4297C60.2969 10.5078 60.1914 10.5469 60.082 10.5469C59.9961 10.5469 59.9062 10.5234 59.8125 10.4766C59.5938 9.52344 59.3867 8.5625 59.1914 7.59375C58.9961 6.61719 58.8633 5.57812 58.793 4.47656C58.6992 4.49219 58.5742 4.51562 58.418 4.54688C58.2695 4.57812 58.1289 4.59375 57.9961 4.59375C57.9805 4.60156 57.9688 4.60547 57.9609 4.60547C57.8359 4.60547 57.7344 4.57422 57.6562 4.51172C57.5781 4.46484 57.5391 4.375 57.5391 4.24219V4.17188C57.7344 4.07812 57.9492 4.02344 58.1836 4.00781C58.418 3.99219 58.6367 3.95312 58.8398 3.89062C58.8711 3.44531 58.9531 3.00781 59.0859 2.57812C59.2266 2.14844 59.4141 1.76172 59.6484 1.41797C59.8906 1.06641 60.1836 0.78125 60.5273 0.5625C60.8711 0.34375 61.2734 0.226563 61.7344 0.210938H61.8164C61.9492 0.210938 62.0898 0.222656 62.2383 0.246094C62.4102 0.285156 62.5781 0.335937 62.7422 0.398438C62.9141 0.460938 63.0703 0.539062 63.2109 0.632812C63.3594 0.726562 63.4805 0.832031 63.5742 0.949219C63.7617 1.19922 63.8594 1.46875 63.8672 1.75781V1.79297C63.8672 2.06641 63.7695 2.34766 63.5742 2.63672ZM69.4102 5.23828C69.4727 5.57422 69.5039 5.88672 69.5039 6.17578C69.5039 6.44922 69.4766 6.70312 69.4219 6.9375C69.3047 7.42969 69.0977 7.84766 68.8008 8.19141C68.5117 8.53516 68.1445 8.8125 67.6992 9.02344C67.2617 9.22656 66.7852 9.375 66.2695 9.46875C65.7461 9.45312 65.2656 9.38672 64.8281 9.26953C64.3984 9.15234 64.0195 8.96875 63.6914 8.71875C63.5508 8.61719 63.4336 8.49609 63.3398 8.35547C63.2539 8.20703 63.1758 8.05469 63.1055 7.89844C63.0352 7.74219 62.9648 7.58203 62.8945 7.41797C62.832 7.24609 62.7578 7.07812 62.6719 6.91406C62.7344 6.52344 62.7969 6.13672 62.8594 5.75391C62.9219 5.37109 63.0156 5.01562 63.1406 4.6875C63.3203 4.46875 63.5273 4.25 63.7617 4.03125C63.9961 3.8125 64.2539 3.62109 64.5352 3.45703C64.8164 3.28516 65.1172 3.15625 65.4375 3.07031C65.6562 3.00781 65.8828 2.97656 66.1172 2.97656C66.2188 2.97656 66.3242 2.98438 66.4336 3C66.5586 3.01562 66.7031 3.04688 66.8672 3.09375C67.0391 3.14062 67.207 3.19531 67.3711 3.25781C67.543 3.32031 67.7031 3.39062 67.8516 3.46875C68.0078 3.54688 68.1328 3.625 68.2266 3.70312C68.3047 3.77344 68.375 3.84766 68.4375 3.92578C68.5 4.00391 68.5586 4.08594 68.6133 4.17188C68.6758 4.25 68.7422 4.32422 68.8125 4.39453C68.8906 4.46484 68.9844 4.52344 69.0938 4.57031C69.1484 4.67969 69.1953 4.79688 69.2344 4.92188C69.2812 5.03906 69.3398 5.14453 69.4102 5.23828ZM68.8242 6.96094C68.8477 6.82031 68.8594 6.67969 68.8594 6.53906C68.8594 6.42969 68.8555 6.31641 68.8477 6.19922C68.8086 5.93359 68.7852 5.67578 68.7773 5.42578C68.6602 5.34766 68.5586 5.25 68.4727 5.13281C68.3867 5.01562 68.3047 4.89453 68.2266 4.76953C68.1484 4.64453 68.0664 4.52344 67.9805 4.40625C67.9023 4.28906 67.8047 4.1875 67.6875 4.10156C67.4375 4.00781 67.1992 3.91016 66.9727 3.80859C66.7539 3.69922 66.5195 3.64062 66.2695 3.63281H66.1992C65.8867 3.63281 65.6211 3.68359 65.4023 3.78516C65.1602 3.89453 64.9297 4.02344 64.7109 4.17188C64.5547 4.28125 64.4141 4.38281 64.2891 4.47656C64.1641 4.57031 64.0508 4.67188 63.9492 4.78125C63.8555 4.89062 63.7695 5.01172 63.6914 5.14453C63.6133 5.26953 63.5469 5.41797 63.4922 5.58984C63.4219 5.88672 63.3867 6.16797 63.3867 6.43359C63.3867 6.62891 63.4062 6.81641 63.4453 6.99609C63.5391 7.41797 63.7227 7.78516 63.9961 8.09766C64.1602 8.18359 64.332 8.27734 64.5117 8.37891C64.6914 8.47266 64.8789 8.55859 65.0742 8.63672C65.2773 8.70703 65.4844 8.75781 65.6953 8.78906C65.8047 8.8125 65.918 8.82422 66.0352 8.82422C66.1367 8.82422 66.2422 8.81641 66.3516 8.80078C66.6172 8.76172 66.8867 8.6875 67.1602 8.57812C67.4336 8.46875 67.6836 8.33203 67.9102 8.16797C68.1367 8.00391 68.332 7.82031 68.4961 7.61719C68.6602 7.41406 68.7695 7.19531 68.8242 6.96094ZM72.0703 9.63281C72.0469 9.69531 72.0039 9.75 71.9414 9.79688C71.8867 9.84375 71.8242 9.875 71.7539 9.89062C71.7148 9.89844 71.6719 9.90234 71.625 9.90234C71.5938 9.90234 71.5625 9.89844 71.5312 9.89062C71.4531 9.88281 71.3867 9.85156 71.332 9.79688C71.2461 9.01562 71.1562 8.24219 71.0625 7.47656C70.9688 6.70312 70.9023 5.9375 70.8633 5.17969C70.8398 4.75781 70.8281 4.33984 70.8281 3.92578C70.8281 3.58984 70.8359 3.25391 70.8516 2.91797C70.8828 2.16797 70.9766 1.41797 71.1328 0.667969C71.2109 0.644531 71.2852 0.632812 71.3555 0.632812C71.4023 0.632812 71.4492 0.636719 71.4961 0.644531C71.5977 0.683594 71.6836 0.742188 71.7539 0.820312C71.6367 1.5625 71.5625 2.30859 71.5312 3.05859C71.5078 3.43359 71.4961 3.80859 71.4961 4.18359C71.4961 4.55078 71.5078 4.92188 71.5312 5.29688C71.5625 6.03906 71.625 6.77344 71.7188 7.5C71.8203 8.22656 71.9375 8.9375 72.0703 9.63281ZM73.8164 1.44141C73.9727 1.34766 74.1016 1.30078 74.2031 1.30078H74.2617C74.3633 1.32422 74.4336 1.37891 74.4727 1.46484C74.4883 1.51953 74.4961 1.58203 74.4961 1.65234V1.75781C74.4727 1.875 74.4297 1.96875 74.3672 2.03906C74.3047 2.10156 74.2305 2.13281 74.1445 2.13281C74.1289 2.13281 74.1172 2.12891 74.1094 2.12109C74 2.11328 73.8789 2.03125 73.7461 1.875C73.7383 1.84375 73.7344 1.81641 73.7344 1.79297C73.7344 1.73047 73.75 1.67969 73.7812 1.64062C73.8047 1.60156 73.8164 1.55078 73.8164 1.48828V1.44141ZM74.7539 9.66797C74.6758 9.69922 74.6055 9.71484 74.543 9.71484C74.4961 9.71484 74.457 9.70312 74.4258 9.67969C74.3398 9.64062 74.2695 9.57031 74.2148 9.46875C74.1602 9.375 74.1172 9.26562 74.0859 9.14062C74.0547 9.02344 74.0195 8.91406 73.9805 8.8125C73.8477 8.47656 73.7344 8.09375 73.6406 7.66406C73.5469 7.23438 73.4805 6.78906 73.4414 6.32812C73.4102 5.94531 73.3945 5.55859 73.3945 5.16797V4.93359C73.4023 4.47266 73.4414 4.04297 73.5117 3.64453C73.6133 3.55078 73.7227 3.50391 73.8398 3.50391H73.8867C74.0195 3.51953 74.1133 3.58984 74.168 3.71484C74.1914 3.76172 74.2031 3.8125 74.2031 3.86719C74.2031 3.92188 74.1953 3.98047 74.1797 4.04297C74.1406 4.17578 74.1133 4.31641 74.0977 4.46484C74.082 4.63672 74.0742 4.82812 74.0742 5.03906V5.25C74.082 5.54688 74.0898 5.79297 74.0977 5.98828C74.0977 6.15234 74.1016 6.33594 74.1094 6.53906C74.125 6.73438 74.1484 6.93359 74.1797 7.13672C74.2109 7.33984 74.2461 7.53906 74.2852 7.73438C74.332 7.92969 74.3867 8.10547 74.4492 8.26172C74.4961 8.39453 74.5586 8.52344 74.6367 8.64844C74.7148 8.76562 74.7773 8.87891 74.8242 8.98828C74.8789 9.09766 74.9062 9.20703 74.9062 9.31641C74.9062 9.43359 74.8555 9.55078 74.7539 9.66797ZM82.2539 5.23828C82.3164 5.57422 82.3477 5.88672 82.3477 6.17578C82.3477 6.44922 82.3203 6.70312 82.2656 6.9375C82.1484 7.42969 81.9414 7.84766 81.6445 8.19141C81.3555 8.53516 80.9883 8.8125 80.543 9.02344C80.1055 9.22656 79.6289 9.375 79.1133 9.46875C78.5898 9.45312 78.1094 9.38672 77.6719 9.26953C77.2422 9.15234 76.8633 8.96875 76.5352 8.71875C76.3945 8.61719 76.2773 8.49609 76.1836 8.35547C76.0977 8.20703 76.0195 8.05469 75.9492 7.89844C75.8789 7.74219 75.8086 7.58203 75.7383 7.41797C75.6758 7.24609 75.6016 7.07812 75.5156 6.91406C75.5781 6.52344 75.6406 6.13672 75.7031 5.75391C75.7656 5.37109 75.8594 5.01562 75.9844 4.6875C76.1641 4.46875 76.3711 4.25 76.6055 4.03125C76.8398 3.8125 77.0977 3.62109 77.3789 3.45703C77.6602 3.28516 77.9609 3.15625 78.2812 3.07031C78.5 3.00781 78.7266 2.97656 78.9609 2.97656C79.0625 2.97656 79.168 2.98438 79.2773 3C79.4023 3.01562 79.5469 3.04688 79.7109 3.09375C79.8828 3.14062 80.0508 3.19531 80.2148 3.25781C80.3867 3.32031 80.5469 3.39062 80.6953 3.46875C80.8516 3.54688 80.9766 3.625 81.0703 3.70312C81.1484 3.77344 81.2188 3.84766 81.2812 3.92578C81.3438 4.00391 81.4023 4.08594 81.457 4.17188C81.5195 4.25 81.5859 4.32422 81.6562 4.39453C81.7344 4.46484 81.8281 4.52344 81.9375 4.57031C81.9922 4.67969 82.0391 4.79688 82.0781 4.92188C82.125 5.03906 82.1836 5.14453 82.2539 5.23828ZM81.668 6.96094C81.6914 6.82031 81.7031 6.67969 81.7031 6.53906C81.7031 6.42969 81.6992 6.31641 81.6914 6.19922C81.6523 5.93359 81.6289 5.67578 81.6211 5.42578C81.5039 5.34766 81.4023 5.25 81.3164 5.13281C81.2305 5.01562 81.1484 4.89453 81.0703 4.76953C80.9922 4.64453 80.9102 4.52344 80.8242 4.40625C80.7461 4.28906 80.6484 4.1875 80.5312 4.10156C80.2812 4.00781 80.043 3.91016 79.8164 3.80859C79.5977 3.69922 79.3633 3.64062 79.1133 3.63281H79.043C78.7305 3.63281 78.4648 3.68359 78.2461 3.78516C78.0039 3.89453 77.7734 4.02344 77.5547 4.17188C77.3984 4.28125 77.2578 4.38281 77.1328 4.47656C77.0078 4.57031 76.8945 4.67188 76.793 4.78125C76.6992 4.89062 76.6133 5.01172 76.5352 5.14453C76.457 5.26953 76.3906 5.41797 76.3359 5.58984C76.2656 5.88672 76.2305 6.16797 76.2305 6.43359C76.2305 6.62891 76.25 6.81641 76.2891 6.99609C76.3828 7.41797 76.5664 7.78516 76.8398 8.09766C77.0039 8.18359 77.1758 8.27734 77.3555 8.37891C77.5352 8.47266 77.7227 8.55859 77.918 8.63672C78.1211 8.70703 78.3281 8.75781 78.5391 8.78906C78.6484 8.8125 78.7617 8.82422 78.8789 8.82422C78.9805 8.82422 79.0859 8.81641 79.1953 8.80078C79.4609 8.76172 79.7305 8.6875 80.0039 8.57812C80.2773 8.46875 80.5273 8.33203 80.7539 8.16797C80.9805 8.00391 81.1758 7.82031 81.3398 7.61719C81.5039 7.41406 81.6133 7.19531 81.668 6.96094Z" fill="black"/>
</svg>
