<svg width="445" height="790" viewBox="0 0 445 790" fill="none" xmlns="http://www.w3.org/2000/svg">
<path d="M54.1653 768.003C53.448 759.418 54.1182 748.145 55.103 739.589C55.4081 736.907 56.7288 738.27 57.0003 736.422C57.5308 732.803 56.9017 729.437 57.545 725.855C57.7649 724.671 59.8515 726.164 60.0341 724.923C61.021 718.128 60.5672 711.687 61.13 704.794C63.9343 670.86 65.9042 637.554 69.617 603.122C70.1965 597.799 71.2112 591.979 72.2068 586.08L72.3075 585.309C73.8349 578.675 75.3045 572.061 75.9952 565.79C76.1438 564.421 74.1846 564.896 74.0821 564.611C72.5355 560.166 75.9488 562.173 76.9302 559.622C80.8161 549.524 83.3886 538.018 85.0084 527.874C85.6962 523.559 81.1353 526.987 84.147 523.158C84.3526 522.893 86.0005 524.423 86.48 523.307C87.5528 520.802 88.455 515.677 89.118 513.709C90.4269 509.818 90.5637 509.218 91.577 505.488C92.9684 500.452 95.6001 494.673 96.776 489.18C97.0248 487.996 94.6433 488.957 94.8723 487.004C95.0977 485.049 96.7677 480.228 97.7462 478.732C98.7175 477.242 99.9972 478.42 100.433 478.242C104.089 476.798 101.926 469.931 102.088 469.153C104.877 455.47 111.446 445.143 116.646 433.236C120.598 424.179 124.523 414.272 129.1 405.972C130.471 403.486 131.88 401.125 133.292 398.87L134.328 397.354C139.531 391.545 144.638 386.324 149.855 380.132C150.593 379.261 147.935 378.717 148.838 377.647C158.449 366.283 169.003 355.532 181.426 346.684C182.672 345.803 182.572 348.647 183.895 347.866C191.98 342.892 205.681 337.878 205.694 327.369C211.347 324.171 218.602 320.693 224.697 320.029C228.603 319.626 226.129 323.096 229.965 320.499C230.792 319.959 229.084 318.721 230.062 317.976C230.116 317.934 230.179 317.893 230.253 317.855C235.761 314.97 242.329 313.26 247.798 310.317C248.916 309.712 248.024 308.146 248.259 307.73C250.275 304.314 256.375 306.832 257.482 306.815C266.042 306.56 271.555 304.055 279.089 302.255C280.837 301.846 278.212 300.034 279.883 299.558C288.572 297.127 298.01 295.556 307.103 295.615C309.115 295.64 307.507 297.849 308.47 297.967C312.714 298.491 313.317 294.607 317.502 295.219C318.371 295.35 317.958 297.104 318.122 297.287C320.608 300.172 322.656 295.924 323.305 295.829C331.463 294.592 336.35 299.399 344.012 300.227C344.961 300.341 343.267 297.745 345.954 298.22C362.046 300.767 379.035 311.701 386.909 326.52C387.832 328.137 388.637 329.793 389.328 331.463C390.409 334.174 387.989 333.053 387.898 333.318C386.286 337.192 390.781 337.136 391.286 338.009C394.958 344.662 392.306 351.591 397.718 355.893C397.735 356.801 397.741 357.704 397.738 358.603C397.725 380.749 395.178 405.841 379.263 424.066C375.991 427.76 372.523 431.428 368.776 434.858C368.52 435.099 367.256 433.317 366.754 433.801C360.644 439.573 364.205 440.316 363.505 447.245C363.302 449.02 356.783 449.019 356.276 449.022C354.38 449.137 353.104 445.952 352.605 446.113C348.601 447.412 356.436 454.219 352.466 457.983C352.332 458.084 351.557 456.214 351.099 456.382C349.683 456.89 349.158 458.373 347.694 458.773C344.288 459.672 340.474 456.395 338.489 461.429C338.201 462.067 342.446 466.357 338.058 468.874C336.398 469.948 328.465 474.217 325.878 474.657C323.376 475.214 324.344 472.824 324.139 472.817C317.151 472.622 319.165 470.777 315.347 468.01C311.746 465.072 314.33 473.446 313.18 474.664C311.999 475.92 306.989 474.402 305.858 473.688C305.756 473.631 305.673 473.569 305.607 473.503C304.942 472.812 305.94 471.736 305.05 471.406C298.605 469.043 302.457 475.873 300.42 477.352C295.6 480.847 291.493 474.492 286.964 473.971C285.736 473.829 286.771 475.285 285.678 475.449C281.355 476.069 278.728 474.083 273.777 475.92C272.985 476.222 268.868 480.082 266.298 477.119C265.945 476.693 267.037 475.113 265.203 474.682C262.432 474.044 257.479 473.384 254.442 473.608C252.18 473.775 254.444 476.706 251.727 475.567C250.512 475.047 253.02 473.782 250.745 472.931C248.524 472.12 242.645 471.15 240.431 470.591C238.184 470.067 238.876 472.333 238.662 472.421C237.39 472.942 232.551 472.351 232.144 472.133C224.489 469.466 216.053 462.377 214.651 453.019C212.921 441.769 212.292 430.695 210.144 419.639C209.874 418.205 207.879 419.437 207.816 419.221C206.3 414.293 212.416 417.51 213.893 413.907C209.651 414.899 210.188 412.854 209.322 409.323C208.913 407.711 207.342 408.781 207.155 408.651C204.358 406.475 207.455 404.357 208.08 403.843C210.373 401.891 207.298 400.448 208.843 399.17C210.378 397.906 213.034 400.249 212.704 396.933C211.077 396.127 207.261 398.987 206.381 396.48C203 387.068 205.193 368.779 205.367 361.113C205.491 353.436 205.198 350.841 205.729 346.407C206.735 338.266 203.733 341.237 202.404 336.174C201.104 331.057 208.466 333.664 210.066 332.964C211.669 332.282 210.049 331.47 210.943 330.598C211.836 329.749 212.873 331.65 213.249 329.622C213.618 327.611 210.984 321.877 209.359 321.055C205.906 319.347 202.092 321.765 203.639 316.314C203.731 316.001 205.625 317.12 205.879 315.918C207.841 306.317 208.674 296.416 210.981 286.968C211.301 285.682 213.332 287.072 213.542 286.329C215.777 278.588 211.85 280.998 208.351 276.135C213.591 277.765 217.125 275.796 217.98 269.847C218.51 266.256 216.092 266.554 214.796 263.982C214.405 263.209 216.399 260.916 215.38 260.282C212.055 258.184 207.638 259.953 210.281 253.963C210.403 253.705 212.209 254.903 212.488 253.986C214.322 248.076 210.732 246.625 211.596 239.953C212.274 234.695 216.587 226.066 218.443 220.372C224.287 221.969 224.324 216.278 220.913 212.954C222.106 209.246 223.042 205.183 224.699 201.762C225.267 200.588 226.695 201.916 226.924 201.816C230.497 200.333 227.129 197.53 227.236 196.68C228.361 188.955 232.446 183.541 233.89 176.527C234.135 175.311 234.294 174.025 234.339 172.644C234.35 172.313 230.591 170.357 234.278 169.341C234.529 169.277 235.303 172.604 236.887 168.897C238.462 165.215 243.277 158.937 243.493 153.02C243.548 151.584 241.614 147.146 245.128 145.551C245.601 145.343 246.575 146.162 247.395 145.921C250.012 145.144 246.411 142.687 250.523 142.171C254.63 141.674 258.681 138.897 258.588 132.771C258.59 132.581 256.01 130.033 256.77 128.421C257.978 125.859 260.258 122.476 261.47 119.798C262.051 118.509 259.771 118.452 259.839 118.213C262.809 109.051 267.516 103.74 273.129 95.2164C274.151 93.6678 274.352 87.5343 278.181 85.5872C282.37 83.5011 288.971 92.2486 291.62 83.5564C292.669 80.1584 284.567 68.7834 293.992 67.4457C300.345 56.19 310.693 49.7554 318.496 39.5884C318.846 39.1329 317.821 35.1851 318.917 34.3234C320.536 33.0594 322.483 33.6715 323.673 32.8607C324.812 32.0986 325.878 31.2886 326.91 30.4535C330.461 27.5813 333.475 24.4184 337.39 22.0506C339.287 20.9125 339.586 22.8079 341.866 21.4852C344.113 20.2023 344.468 17.2697 348.125 16.4923C350.933 15.9005 355.476 18.8444 358.755 17.8699C356.854 13.6091 359.015 12.6142 362.57 9.7743C363.249 9.23138 361.794 8.07618 362.086 7.74095C363.268 6.3406 365.214 7.02315 366.333 5.63315C366.611 5.29607 366.07 3.79463 366.28 3.43085C368.057 0.253144 373.47 2.33458 374.314 2.76003C377.73 4.25332 378.455 1.9439 380.834 2.36076C383.145 2.81397 380.261 4.63126 382.807 4.66737C388.057 4.74238 394.486 3.74764 399.652 3.81415C401.699 3.82986 400.312 1.70212 400.604 1.65472C405.054 1.12056 409.094 3.82777 412.129 -0.000187993C413.382 11.341 414.951 -0.767706 420.8 2.95158C421.256 3.2612 420.41 8.39898 418.513 8.68646C416.638 8.98232 414.331 6.81467 411.7 7.60877C411.026 7.76515 407.259 12.1948 406.863 12.472C403.488 14.4817 403.368 6.78339 403.173 6.33579C401.11 1.62635 396.851 6.96563 395.917 7.40955C391.199 9.34655 387.012 8.90695 383.268 10.9211C380.83 12.2504 381.852 17.2451 379.93 17.5974C373.649 18.8621 368.641 13.1832 365.076 21.394C364.328 23.178 367.928 27.5743 361.69 25.7272C361.339 25.5821 356.177 23.7124 355.509 26.9771C355.426 27.3857 356.214 28.7983 355.974 29.0866C354.36 30.9914 352.371 30.657 350.497 32.5227C348.629 34.389 346.566 36.8179 343.823 38.0369C342.206 38.7436 338.535 37.6628 337.414 37.5682C335.613 37.4101 334.781 38.7252 333.929 39.7222C333.279 40.4936 332.622 41.064 331.394 40.5804C328.575 39.5161 328.561 34.491 324.245 35.8145C326.778 39.1727 329.242 42.7303 331.751 46.1402C325.134 51.3942 318.121 56.3818 312.498 63.0876C311.809 63.9195 314.235 64.5727 313.55 65.496C310.681 69.3783 306.764 71.7015 304.238 76.1805C302.294 79.6521 301.799 84.5515 300.073 88.2888C294.661 87.7433 292.721 93.8937 290.093 97.5674C289.167 98.8589 288.108 98.127 287.182 98.9023C283.719 101.876 288.42 102.205 288.436 103.546C288.553 109.267 279.868 105.084 277.304 110.6C277.158 110.895 280.003 116.669 280.066 117.276C280.456 121.22 278.216 116.991 276.948 118.737C274.637 121.942 272.367 123.902 271.849 128.703C271.696 130.123 273.333 134.309 270.032 135.723C269.599 135.909 268.118 135.063 267.917 135.278C264.421 139.231 269.28 141.449 269.854 144.758C270.425 148.078 265.367 150.784 264.047 151.235C260.625 152.405 263.633 149.12 263.435 148.897C261.034 146.297 260.324 149.515 259.153 151.732C254.164 150.141 253.168 153.515 257.958 154.043C258.482 154.097 258.744 152.113 259.153 151.732C263.1 155.669 262.324 159.426 256.326 161.659C253.511 162.719 251.757 159.986 250.463 166.015C249.882 168.735 253.622 169.024 253.66 171.664C253.734 175.385 251.475 179.06 249.395 182.578C248.189 184.59 247.064 186.599 246.535 188.61C246.025 190.564 248.544 189.402 248.263 190.754C247.537 194.328 245.089 196.893 244.665 200.599C244.63 200.934 246.838 200.814 246.512 201.893C244.098 210.088 240.748 216.911 238.494 225.615C237.388 229.844 236.75 237.639 235.615 242.017C233.629 249.524 228.99 258.557 228.705 265.345C228.514 269.742 230.703 269.088 231.827 271.141C234.006 275.087 228.397 280.731 227.548 281.551C227.517 281.573 227.492 277.756 226.198 279.631C223.867 280.543 227.544 281.509 227.548 281.551C226.982 282.068 225.698 289.504 225.959 291.045C226.094 291.882 228.081 291.615 228.115 292.046C228.891 302.207 228.719 312.273 227.417 322.403C227.371 322.582 225.199 322.226 225.117 322.65C223.928 328.576 226.52 332.435 228.045 337.323C229.575 342.138 229.059 346.074 225.335 348.946C225.835 352.664 224.285 357.927 223.376 361.061C222.464 364.18 226.734 364.442 226.826 364.707C229.829 372.925 227.656 377.869 227.891 386.528C227.994 390.69 229.306 398.68 230.243 403.136C230.971 406.544 230.224 408.836 231.232 411.937C231.367 412.354 233.196 411.699 233.283 411.82C235.954 415.044 231.164 413.962 230.433 414.796C227.798 417.922 226.404 419.706 228.464 424.18C228.924 425.129 235.987 427.352 236.658 429.091C237.523 431.388 235.036 430.977 236.026 433.41C236.11 433.62 237.551 433.32 237.752 434.869C238.298 438.949 238.813 443.486 239.417 447.057C239.304 446.976 239.118 446.702 238.937 446.504C238.76 446.301 238.625 446.208 238.73 446.262C238.79 446.296 240.289 444.502 240.335 444.462C240.463 444.544 245.728 446.832 251.221 448.67C252.595 449.163 251.465 450.643 251.705 451.172C253.253 454.385 256.73 450.454 257.198 450.411C268.851 449.384 278.712 453.075 291.971 450.826C292.706 450.698 298.105 445.912 300.804 449.723C300.955 449.933 302.808 452.644 304.642 451.961C304.891 451.825 305.134 451.538 305.345 451.049C305.404 450.869 304.353 448.881 305.982 448.962C307.692 449.024 309.808 447.271 312.673 448.749C313.512 449.244 316.862 452.368 317.872 448.387C318.088 448.072 317.768 440.141 321.415 443.697C322.017 444.271 324.637 448.937 325.884 444.826C326.092 444.04 324.514 443.717 325.397 442.188C326.696 439.869 330.252 438.793 331.055 434.832C331.211 434.125 330.406 429.956 333.712 430.447C334.236 430.518 335.078 432.181 335.966 431.546C340.22 428.492 342.989 423.406 347.477 419.69C349.074 418.355 350.666 420.939 352.596 419.701C354.524 418.467 357.798 415.356 358.167 412.687C358.53 410.031 353.359 409.37 355.189 406.317C355.223 406.259 355.258 406.202 355.292 406.144C360.158 397.146 366.066 387.688 367.606 374.956C367.814 373.091 366.092 374.515 366.234 371.777C366.379 368.546 366.248 364.477 365.923 360.077C365.372 352.181 363.336 346.645 363.053 342.75C363.003 342.508 362.959 342.27 362.921 342.036C361.651 335.774 367.876 340.412 365.837 335.987C364.674 333.717 359.195 335.78 358.791 335.643C354.234 333.788 352.769 330.195 348.164 328.967C347.231 328.744 347.27 331.069 346.516 330.876C343.973 330.262 341.438 328.539 338.611 328.143C337.355 327.98 337.293 329.63 336.179 329.312C333.483 328.585 331.029 327.647 328.086 325.97C327.809 325.818 329.788 323.876 327.469 323.696C323.689 323.418 318.688 322.021 314.155 323.97C312.807 324.56 313.129 328.259 309.939 326.019C309.268 325.561 309.501 320.994 306.504 325.293C305.962 325.996 301.061 332.025 297.598 329.287C296.695 328.556 293.998 325.348 292.394 326.28C292.184 326.419 293.517 328.183 292.161 328.673C287.334 330.384 282.117 331.473 277.166 333.511C275.856 334.058 278.434 335.485 276.472 336.237C271.079 338.307 263.996 340 258.339 341.255C256.252 341.713 257.08 339.613 256.874 339.486C253.524 337.422 253.47 341.799 252.773 342.3C248.838 345.074 244.916 344.996 241.017 346.572C240.672 346.713 240.329 346.876 239.989 347.065C239.03 347.597 240.482 349.123 240.347 349.365C238.976 351.779 239.137 347.902 237.672 348.106C233.539 348.694 229.427 351.003 225.874 353.424C224.574 354.315 227.253 355.35 226.091 356.123C219.254 360.746 212.023 365.982 204.618 370.775C203.219 371.679 202.848 369.683 202.324 369.611C198.667 369.096 198.597 374.333 198.266 375.143C196.712 378.867 194.618 378.748 192.472 381.273C182.767 392.714 169.89 406.401 159.642 418.012L161.736 414.946C161.164 415.865 160.604 416.775 160.058 417.674C149.769 434.783 141.886 448.519 135.447 466.87C135.043 468.031 137.653 467.678 137.334 468.687C133.135 481.684 128.158 494.353 125.088 507.866C124.832 508.978 127.394 507.985 127.057 509.789C126.389 513.457 125.063 517.99 123.447 521.498C122.66 523.217 121.439 520.337 120.688 522.071C118.941 526.089 117.689 530.605 117.022 535.06C116.748 536.94 119.585 534.663 119.059 537.066C115.522 553.535 112.774 569.859 107.082 586.33C106.704 587.424 102.275 587.72 102.437 590.161L102.571 589.132C102.581 589.204 102.595 589.277 102.613 589.353C103.86 589.665 105.349 589.804 106.693 590.02C104.996 614.583 102.021 639.142 100.823 664.218C100.774 665.279 103.268 663.536 103.185 665.589C102.717 677.407 103.077 688.937 100.434 701.034C100.176 702.235 95.9157 701.545 96.4996 705.107C96.6052 705.735 97.09 711.11 97.9995 712.505C98.1367 712.695 100.143 711.745 100.178 713.472C100.344 723.505 99.8146 734.007 98.584 744.028C98.3817 745.645 96.261 743.92 96.0987 745.073C94.9632 753.257 96.6115 762.151 94.7487 769.989C93.4959 775.236 89.8108 773.333 86.2265 776.159C85.7205 776.558 85.6755 779.811 83.5767 780.005C78.298 780.5 72.4943 778.984 66.8698 779.697C65.6576 779.848 67.0175 784.224 64.0545 781.659C63.8557 781.479 62.8461 778.307 61.8439 777.533C61.1505 776.994 59.024 778.001 58.1321 776.896C57.2413 775.791 59.0202 774.544 57.9695 772.704C56.9067 770.863 54.4812 771.699 54.1653 768.003ZM219.453 375.071C217.567 378 225.055 377.98 223.105 375.064C223.002 374.923 219.545 374.92 219.453 375.071ZM314.242 52.5964C309.314 52.9464 311.22 58.0904 314.798 57.96C318.332 57.8961 315.717 52.5185 314.242 52.5964ZM341.966 26.9029C336.912 27.1128 342.35 36.2419 344.854 32.0136C345 31.774 342.256 26.895 341.966 26.9029ZM85.0949 763.218C84.9956 763.259 84.9131 765.598 85.0121 765.653C87.3945 766.882 87.5576 762.209 85.0949 763.218ZM374.889 8.27872C373.163 7.27798 369.987 10.1009 372.143 11.2562C373.823 12.1833 376.973 9.51795 374.889 8.27872ZM286.751 470.325C286.798 470.436 288.476 470.492 288.425 469.863C288.253 467.839 285.951 468.471 286.751 470.325ZM436.986 13.7573C429.078 9.1043 425.914 -1.22382 436.107 4.14415C437.864 5.14864 430.974 4.87706 432.992 6.65529C436.472 9.81105 441.879 6.47439 444.455 11.5382C444.845 12.3859 437.392 13.9725 436.965 13.76C436.972 13.7591 436.979 13.7582 436.986 13.7573ZM210.573 377.188C210.476 377.236 210.519 379.614 210.621 379.659C213.064 380.789 212.98 376.046 210.573 377.188ZM371.002 428.621C371.249 428.653 374.678 424.424 374.618 424.174C373.205 419.597 366.315 428.07 371.002 428.621ZM218.623 220.321C216.938 217.247 217.47 214.151 220.907 212.965C220.076 215.391 219.396 217.872 218.623 220.321Z" fill="black"/>
<path d="M272.078 682.871C270.461 684.845 267.414 686.173 264.826 686.831C264.023 687.035 263.586 685.721 262.986 685.821C261.823 686.01 261.387 687.109 260.182 687.199C259.781 687.222 258.934 685.254 258.54 685.319C256.374 685.692 255.108 687.207 253.146 687.984C246.448 690.627 239.134 694.05 232.143 696.484L231.721 696.675C229.859 697.165 227.39 698.135 225.018 699.108C222.324 700.214 218.114 700.445 215.838 702.775C215.564 703.054 216.702 704.52 216.718 704.687C216.958 707.253 215.381 703.862 214.511 703.808C211.041 703.619 208.164 705.198 206.233 707.252C205.387 708.148 208.352 710.606 206.237 709.511C206.091 709.439 205.306 707.621 204.914 707.621C204.003 707.641 203.061 708.654 202.485 708.838C201.387 709.173 201.241 709.29 200.33 709.849C199.122 710.568 197.171 710.674 196.093 711.906C195.87 712.172 197.329 713.615 197.085 714.182C196.844 714.746 195.604 715.356 194.952 715.22C194.301 715.082 193.6 713.656 193.332 713.4C191.082 711.229 192.04 715.66 191.945 715.849C189.814 719.399 185.796 719.202 182.852 721.215C180.66 722.719 178.708 725.025 176.558 726.383C173.931 728.037 171.253 728.585 168.901 730.472C168.658 730.665 170.314 732.382 170.021 732.622C166.882 735.174 163.461 737.301 159.234 738.391C158.813 738.496 158.021 736.514 157.528 736.518C154.541 736.575 148.894 735.635 153.055 743.765C151.502 744.467 149.606 745.413 147.338 744.831C145.865 744.466 145.278 742.094 144.894 743.577C144.805 743.909 146.263 745.287 146.042 745.666C145.117 747.253 143.211 747.873 142.499 749.681C142.354 750.055 143.49 751.416 143.604 751.729C144.507 754.277 140.865 751.677 140.44 751.609C137.24 751.124 136.487 752.835 134.786 754.057C134.39 754.341 136.287 755.885 135.958 756.225C134.224 757.973 132.123 759.324 129.595 759.94C129.029 760.073 128.178 758.171 127.844 758.153C126.385 758.093 128.526 761.273 127.171 761.276C126.891 761.279 125.929 759.831 125.78 759.705C123.444 757.734 125.598 761.423 125.526 761.597C124.664 763.884 120.889 761.22 119.668 762.971C119.526 763.183 121.307 764.575 120.83 765.062C117.653 768.321 113.531 770.82 108.921 772.271C108.205 772.499 107.564 770.901 107.402 770.77C104.856 768.743 107.161 772.348 107.085 772.615C106.415 774.633 102.863 772.919 105.103 777.625C100.102 780.066 96.6246 784.341 91.8837 787.092L90.2195 788.162C87.4126 789.102 83.3364 789.745 79.4352 787.7C79.2797 787.617 79.9497 785.614 79.6794 785.462C76.7342 783.334 76.3922 786.662 71.288 787.891C69.8398 788.021 71.8526 783.13 72.1497 782.894C72.8052 781.654 75.5428 780.071 75.6308 779.784C76.5717 777.783 68.3114 784.021 67.1073 782.101C67.0905 782.04 68.8524 781.29 68.9288 781.05C69.1777 780.313 68.2914 780.271 68.6458 779.544C69.4821 777.868 73.9179 775.556 70.7161 775.49C70.3034 775.473 65.0115 778.02 64.6928 776.455C64.5553 775.825 63.6173 773.406 63.7839 772.619C63.9397 771.841 65.8824 771.748 65.945 771.674C67.8045 769.209 69.0038 769.603 72.3161 767.773C75.6387 766.005 67.2489 768.539 66.2089 768.44C65.1666 768.327 66.8382 766.574 67.458 766.097C68.0763 765.62 69.3314 765.709 69.6588 765.348C71.8083 762.999 65.2439 765.596 63.7475 765.316C63.7276 765.312 63.7079 765.309 63.6885 765.305C60.2934 764.691 66.3036 762.172 66.6259 760.797C66.7135 760.424 65.3391 761.04 65.1336 760.776C64.3387 759.728 66.1418 758.555 64.0104 757.66C63.6622 757.51 59.6035 757.36 62.2163 755.979C62.5934 755.781 64.2352 755.675 64.464 755.088C64.8084 754.21 64.8179 752.781 64.0928 752.115C63.5568 751.624 61.1376 752.947 61.7562 752.006C62.0326 751.588 63.6997 751.816 64.0924 751.061C64.4845 750.302 64.0136 748.726 63.8073 748.138C63.6001 747.55 61.7235 748.382 61.5789 748.367C60.7471 748.267 59.5072 747.365 59.4834 747.264C57.9284 742.233 59.9503 736.612 57.481 731.971C57.2892 731.604 55.3065 732.439 55.2561 732.389C54.0202 731.294 59.7804 730.816 61.3448 729.362C57.2137 730.672 57.8133 729.906 57.0898 729.097C56.7377 728.708 55.1944 729.413 55.0175 729.418C52.3776 729.448 55.4094 728.083 56.022 727.777C58.2757 726.653 55.3254 726.979 56.8296 726.221C58.3213 725.466 60.8613 725.485 60.5722 724.595C59.0101 724.775 55.3086 726.561 54.4823 726.067C51.353 724.172 52.991 718.529 52.6707 716.356C52.3607 714.207 51.8854 713.643 52.0464 712.27C52.3386 709.803 49.7161 711.492 47.9849 710.573C46.2524 709.657 53.5084 708.071 54.9635 707.399C56.4185 706.728 54.7931 707.016 55.5509 706.515C56.3084 706.015 57.5011 706.198 57.6372 705.544C57.7724 704.886 54.5871 704.214 52.942 704.531C49.4555 705.198 46.1571 707.011 46.9225 705.158C46.9687 705.051 48.9069 704.722 48.9898 704.341C49.5915 701.344 48.7917 698.636 49.1905 695.683C49.2479 695.276 51.4029 694.893 51.4592 694.648C52.044 692.067 48.8476 694.001 44.6174 694.157C49.8081 692.668 52.7088 690.949 52.1779 689.321C51.8607 688.344 49.6939 689.285 47.9094 689.211C47.3713 689.188 48.6564 687.965 47.5674 688.208C44.0073 689.001 40.4103 690.987 41.3519 688.807C41.3986 688.71 43.3485 688.278 43.3732 687.988C43.5401 686.11 39.907 687.198 38.8523 685.625C38.023 684.385 39.3132 681.189 39.0908 679.515C44.7883 677.438 42.9346 676.439 38.7986 677.32C38.5825 676.257 37.9536 675.263 38.1267 674.096C38.1831 673.691 39.9071 673.285 40.0682 673.175C42.5996 671.463 38.6328 672.479 38.4012 672.321C36.0548 670.539 38.1834 667.519 34.4964 666.399C34.364 666.36 30.4007 667.791 33.0219 666.062C33.2032 665.945 35.2758 665.967 34.9968 664.869C34.7217 663.779 36.0136 660.947 33.6138 660.239C33.035 660.064 29.5122 660.487 31.6905 658.763C31.9869 658.531 33.1459 658.172 33.7109 657.779C35.507 656.518 31.4738 657.906 34.5972 655.997C37.7203 654.089 39.7601 651.941 36.8418 651.446C36.7551 651.427 33.5012 652.396 33.3569 651.919C33.1275 651.152 33.3283 649.832 32.9796 649.077C32.8116 648.716 30.9874 649.778 30.9249 649.73C28.7955 647.754 29.7458 645.262 29.3258 642.32C29.2533 641.78 26.0292 641.568 27.672 639.716C29.4658 637.681 39.3173 634.495 36.0081 633.136C34.6767 632.579 22.2721 636.834 27.6281 632.312C24.5895 629.745 26.2787 625.233 22.5373 622.997C22.3705 622.896 18.8695 624.024 18.7479 623.661C18.573 623.117 19.9672 622.093 19.8888 621.678C19.6003 619.921 17.6057 619.173 17.0807 617.612C16.8766 617.019 18.5486 616.426 18.3034 615.717C18.0562 615.008 15.7639 615.608 16.3111 614.207C16.7311 613.147 20.6136 610.327 20.6418 609.167C16.4608 611.255 16.2311 610.591 14.5714 610.059C14.2505 609.958 12.9195 610.927 12.6931 610.918C11.7403 610.898 12.7465 609.907 11.738 609.943C11.4952 609.95 10.0749 610.678 9.79658 610.726C7.37721 611.163 10.0131 608.45 10.471 607.976C12.2108 606.178 10.1989 606.81 10.7461 605.839C11.2925 604.868 12.7487 605.13 12.9215 604.238C13.2773 602.39 12.1616 600.832 11.5216 599.477C11.2575 598.941 9.57009 600.304 9.48864 600.25C8.43328 599.42 9.83796 597.248 5.77866 598.661C15.0272 592.697 4.49027 598.513 5.5848 595.926C5.67503 595.72 10.1474 593.084 11.0726 593.191C11.9975 593.299 10.9585 594.785 12.3564 594.875C12.6846 594.896 17.4461 593.484 17.7717 593.468C20.3143 593.337 13.5514 597.134 13.2026 597.384C9.45449 600.12 14.6526 598.737 15.1262 598.858C17.2903 599.396 16.9153 601.023 18.5419 601.577C19.5976 601.944 24.1365 599.664 24.2978 600.309C24.8392 602.462 18.8751 606.354 25.261 605.343C26.6241 605.131 31.3716 602.22 28.1933 605.596C27.9944 605.811 24.9547 608.643 27.5079 608.095C27.8298 608.026 29.2723 607.293 29.4435 607.331C30.5629 607.597 29.6348 608.619 30.5493 609.065C31.4639 609.511 32.7242 609.975 32.6432 611.046C32.5975 611.691 30.2122 613.667 29.6675 614.231C28.092 615.842 31.5742 615.025 29.4675 616.577C27.3487 618.133 23.4221 619.047 22.4533 620.871C26.2495 619.066 30.1715 617.267 34.0024 615.479C35.0526 617.968 34.9822 620.96 36.3038 623.322C36.472 623.614 38.3681 622.338 38.6015 622.627C39.5782 623.856 38.6831 625.744 39.9274 626.903C40.8985 627.796 43.6366 628.024 44.7185 628.944C40.6673 631.65 42.934 632.695 43.099 634.139C43.1583 634.643 41.9726 635.138 41.7301 635.623C40.8405 637.432 44.4759 635.15 45.2315 635.202C48.4606 635.441 39.7164 639.452 40.6491 640.985C40.6948 641.066 45.859 640.077 46.2169 640.1C48.5314 640.201 44.6474 640.966 44.5523 641.698C44.3779 643.036 43.57 644.255 45.4866 644.916C46.0505 645.103 49.3707 644.741 47.3933 646.412C47.1347 646.631 45.5521 647.241 45.4924 647.354C44.5399 649.35 49.4622 647.319 51.4549 647.407C53.448 647.497 50.5598 650.127 49.6819 650.778C47.4161 652.471 48.3953 650.733 48.1322 650.801C45.0059 651.62 45.8821 652.291 45.906 653.058C41.1196 655.148 41.7896 655.952 45.9509 653.848C46.4047 653.616 45.7407 653.283 45.906 653.058C50.8821 651.685 51.9205 652.484 47.9512 655.431C46.0898 656.811 43.4621 657.291 45.0028 658.546C45.6999 659.119 48.9198 657.489 50.0902 657.772C52.7625 658.423 50.4171 661.605 51.5106 662.949C51.9068 663.434 53.5275 662.175 53.8618 662.483C54.7551 663.301 53.7258 664.73 54.8254 665.48C54.9274 665.547 56.7625 664.579 56.9099 664.889C58.0709 667.24 57.6223 669.783 58.5338 672.341C58.9718 673.565 60.8392 675.355 61.0871 676.711C61.5316 679.06 59.662 682.745 61.0108 684.398C61.8786 685.469 63.7297 684.521 65.2395 684.587C68.1659 684.715 64.1797 688.118 63.5468 688.602C63.5257 688.616 62.7027 687.714 61.8959 688.622C59.9232 689.665 63.5336 688.592 63.5468 688.602C63.1415 688.921 63.4189 691.19 63.931 691.48C64.2117 691.638 66.019 690.888 66.1305 690.983C68.7417 693.262 70.1599 695.981 70.224 699.159C70.2029 699.222 68.0994 699.815 68.0756 699.955C67.6919 701.933 70.5735 702.181 72.5237 703.091C74.4724 704.001 74.3123 705.275 70.9859 707.207C71.7621 708.117 70.6329 710.09 69.9325 711.244C69.2314 712.396 73.3365 711.286 73.4401 711.338C76.738 712.955 74.8113 715.011 75.1722 717.588C75.3385 718.819 76.6035 720.974 77.4119 722.116C78.059 723.019 77.2725 723.898 78.1482 724.656C78.2656 724.759 80.0516 724.119 80.1326 724.137C82.6065 724.569 78.0104 725.319 77.2751 725.757C74.6014 727.353 73.1879 728.24 74.9154 729.181C75.311 729.396 81.9795 728.515 82.5098 728.976C83.1867 729.576 80.8077 729.93 81.5744 730.542C81.6379 730.595 83.0557 730.194 83.1219 730.685C83.4476 732.959 83.2486 735.536 83.9924 737.791C84.0884 738.1 86.2438 737.106 86.4199 737.544C87.2403 739.584 87.7503 741.913 87.2146 744.256C87.0754 744.834 85.4082 744.915 84.9651 745.145C82.2872 746.546 86.6646 746.442 86.7839 746.584C89.716 749.851 86.6663 753.662 89.3678 757.074C89.4948 757.225 92.7781 757.636 91.9315 758.682C91.7392 758.878 91.3506 759.106 90.6911 759.375C90.4457 759.472 86.681 761.005 89.4772 760.861C89.6512 760.848 91.5705 760.001 91.5185 760.656C91.4668 761.308 93.0433 761.862 91.0736 763.22C90.4484 763.634 86.7956 765.416 90.0546 765.102C90.3017 765.146 97.3903 763.552 92.7992 765.488C92.0436 765.805 87.1106 767.691 89.8615 767.279C90.385 767.172 91.4063 766.566 92.1752 766.498C93.3315 766.339 92.2575 767.303 94.1807 765.933C94.5574 765.751 97.3322 763.419 94.7616 764.522C94.3738 764.716 93.0616 765.896 92.757 765.827C92.011 765.654 91.43 764.883 90.207 763.951C89.0297 763.035 87.0543 762.054 85.0451 762.203C83.6762 762.34 83.717 765.25 82.7019 765.884C81.6184 766.53 80.7359 767.388 80.1826 766.191C79.5241 765.012 78.9181 760.473 78.0004 760.355C77.3161 760.262 76.9756 760.264 76.848 760.274L72.0642 763.35C74.7355 760.865 78.6548 760.001 81.6682 757.943C82.214 757.572 80.7634 756.661 81.4945 756.023C84.1687 753.675 88.0324 748.595 92.6139 749.352C96.279 749.959 95.1542 753.551 97.3341 753.248C98.3797 753.099 95.8636 748.36 95.9334 748.093C96.5606 745.438 99.2019 746.327 100.28 744.565C100.502 744.2 98.8701 742.764 99.0746 742.472C99.7621 741.458 101.313 741.454 102.077 740.633C102.422 740.258 101.342 739.029 101.785 738.843C102.832 738.383 104.025 738.322 105.811 738.872C105.973 738.922 106.702 740.929 107.389 740.49C108.501 739.773 110.696 739.981 110.953 737.813C111.023 737.167 108.759 734.2 111.1 735.65C111.589 735.952 114.117 739.661 112.647 735.907C112.403 735.283 110.724 729.988 113.503 732.101C114.234 732.657 116.963 735.186 117.043 734.4C117.046 734.282 115.595 732.868 115.834 732.439C116.699 730.957 118.145 730.127 119.051 728.654C119.291 728.258 117.527 726.99 117.925 726.452C119.036 724.955 121.139 724.033 122.911 723.517C123.568 723.329 124.244 724.969 124.394 725.091C126.812 727.079 124.701 723.533 124.763 723.188C125.157 721.105 127.258 721.945 128.096 720.688C128.331 720.345 126.942 718.939 126.9 718.752C126.537 716.899 128.144 720.083 128.787 720.089C130.58 720.126 131.803 719.029 132.828 717.966C133.203 717.572 131.374 716.1 131.728 715.767C133.773 713.78 136.334 712.183 139.3 711.583C139.861 711.473 140.62 713.081 140.942 713.341C143.172 715.174 141.851 711.431 141.845 710.988C141.819 708.966 143.086 709.959 143.743 709.133C146.937 705.074 152.586 702.341 156.79 700.192C162.265 697.38 167.175 696.041 171.765 692.445C172.064 692.214 170.455 690.494 170.696 690.27C173.853 687.484 177.711 686.028 180.911 683.157C181.17 682.929 179.56 681.346 179.936 680.917C180.68 680.037 181.991 679.337 183.338 679.312C183.993 679.296 184.378 681.294 185.014 681.247C186.487 681.149 187.758 680.529 188.725 679.504C189.13 679.067 187.195 677.62 187.816 677.2C192.024 674.298 196.164 671.311 202.24 671.163C202.66 671.152 205.226 674.96 205.439 673.825C204.857 672.694 204.111 671.397 203.458 670.205C207.382 667.47 211.613 665.538 217.324 663.497L216.725 663.768C219.075 662.977 221.075 662.298 223.067 661.285C223.282 661.175 221.732 659.263 222.131 659.044C224.454 657.766 226.424 655.735 230.373 656.016C230.761 656.042 232.991 659.688 233.416 658.628C233.484 658.442 234.354 657.17 234.138 656.195C234.101 656.051 232.764 654.549 233.114 654.241C235.141 652.496 237.732 651.238 240.692 650.63C241.168 650.538 242.015 652.539 242.363 652.49C244.868 652.092 245.919 649.349 248.814 649.631C250.768 649.817 252.485 653.104 255.233 655.571C255.62 655.921 256.407 655.448 257.685 657.117C260.896 661.315 263.937 666.257 267.403 670.701C268.146 671.661 268.402 669.857 269.522 672.669C269.594 672.86 269.428 674.183 269.835 675.117C270.114 675.764 271.597 677.329 271.859 678.226C272.118 679.126 270.8 677.868 270.966 679.026C271.149 680.186 272.761 682.021 272.078 682.871ZM66.7937 716.412C65.0713 717.782 72.2746 715.773 70.3043 715.424C70.2005 715.409 66.8776 716.343 66.7937 716.412ZM29.88 623.377C27.3672 625.768 32.0635 624.355 34.0357 622.57C36.0024 620.782 30.6396 622.648 29.88 623.377ZM22.8027 614.377C21.0354 616.66 30.6198 612.12 28.094 611.858C27.9501 611.841 22.9048 614.243 22.8027 614.377ZM252.893 658.536C252.959 658.611 253.555 658.3 253.512 658.21C252.408 656.078 251.219 656.7 252.893 658.536ZM15.4437 605.712C14.3522 606.721 16.3394 606.957 17.6996 605.706C18.7935 604.697 16.8006 604.454 15.4437 605.712ZM70.1678 759.915C70.0625 759.953 70.075 760.438 70.6855 760.283C72.6513 759.781 71.9406 759.27 70.1678 759.915ZM6.46593 589.245C7.46043 591.87 0.571342 597.531 0.00207543 594.44C-0.102547 593.879 3.01199 594.117 3.3715 593.132C4.0204 591.327 -1.19706 593.255 0.755712 590.702C1.11303 590.234 6.42546 589.083 6.47899 589.243C6.47464 589.244 6.47027 589.244 6.46593 589.245ZM58.3198 719.426C58.2297 719.469 58.3257 720.122 58.4241 720.11C60.8011 719.776 60.608 718.455 58.3198 719.426ZM82.4355 785.851C82.5025 786.104 84.6902 785.971 84.6798 785.732C84.5591 781.834 81.5482 781.897 82.4355 785.851ZM39.2334 679.434C36.7465 679.597 36.1885 678.908 38.7969 677.324C38.8959 678.04 39.123 678.715 39.2334 679.434Z" fill="black"/>
</svg>
