<svg width="240" height="239" viewBox="0 0 240 239" fill="none" xmlns="http://www.w3.org/2000/svg">
<path d="M181.046 180.36C181.654 174.78 181.905 167.177 181.73 161.284C181.679 159.427 182.147 160.333 182.118 159.053C182.05 156.54 181.585 154.204 181.432 151.713C181.38 150.874 182.146 151.82 182.077 150.945C181.685 146.17 180.715 141.679 179.847 136.859C179.241 133.494 178.559 130.14 177.815 126.788C173.313 106.555 166.303 87.0236 157.431 67.773C154.035 60.3821 149.96 51.3296 145.547 44.1293C145.036 43.2958 144.845 44.0764 144.714 43.9378C142.648 41.7467 144.095 42.0255 143.262 40.307C139.915 33.4398 135.429 26.2689 131.096 20.3617C129.266 17.8823 130.131 21.0454 128.844 18.1317C128.753 17.9314 129.684 18.2332 129.248 17.5057C128.25 15.8376 126.01 12.9433 125.144 11.7229C124.712 11.1071 124.379 10.6396 124.092 10.2429C124.101 10.2409 124.214 10.3676 124.44 10.4762C124.67 10.5959 125.015 10.6446 125.181 10.6246C125.578 10.5699 125.332 10.5306 124.852 10.9289C122.777 12.6092 120.008 16.4306 118.182 19.8532C117.79 20.5961 118.856 19.9425 118.301 21.1259C117.72 22.3366 116.002 25.4433 115.312 26.492C114.647 27.477 114.454 26.8182 114.262 26.9556C112.622 28.137 111.945 32.4234 111.727 32.9658C108.02 41.9919 103.998 49.5375 100.452 58.076C97.7591 64.582 95.1906 71.6663 92.719 77.9255C89.7891 85.3423 87.091 91.5463 84.4333 98.8558C84.1539 99.6236 85.1504 98.9717 84.8103 99.9109C81.191 109.908 77.5382 119.821 73.5668 129.656C73.1664 130.647 73.0376 129.142 72.6025 130.121C71.538 132.527 70.1833 135.428 69.0045 138.409C67.232 142.892 65.9873 147.267 66.7974 149.972C65.324 154.074 63.5804 159.166 61.9197 162.713C60.8483 165.008 60.9135 162.475 60.2774 165.561C60.1358 166.253 60.9663 165.551 60.7131 166.571C59.6596 170.824 58.1199 175.494 57.2945 179.746C57.1214 180.636 57.6992 180.533 57.7258 180.803C57.9308 183.02 55.8189 186.136 55.553 186.837C53.4836 192.338 52.8181 196.584 51.8052 201.882C51.5788 203.089 52.5454 201.771 52.3487 202.97C51.3415 209.152 50.4125 215.527 50.0207 221.418C49.9407 222.758 49.3387 221.522 49.2717 222.166C49.0289 224.974 50.197 225.53 50.2874 228.047C50.3205 228.578 49.7607 228.367 49.7197 228.472C49.1036 230.126 50.6371 231.087 50.8507 231.468C50.8523 231.466 50.8531 231.463 50.8531 231.461C50.8652 231.405 50.7354 231.066 50.3991 230.824C50.0719 230.586 49.8084 230.573 49.7815 230.571C49.7303 230.583 50.134 230.543 50.5329 230.425C51.3549 230.196 52.3445 229.812 53.2906 229.408C55.2038 228.58 57.1493 227.583 59.1991 225.966C59.6912 225.574 58.1765 225.875 59.5551 224.822C68.7574 217.661 78.3688 209.573 87.586 202.336C89.0071 201.214 88.3537 202.433 88.4793 202.405C90.5183 201.9 90.6059 200.134 91.0125 199.717C91.6594 199.065 92.3432 198.453 93.038 197.863C95.7648 195.55 98.618 193.616 99.6676 191.04C114.815 178.173 128.609 164.018 143.874 151.47C144.066 151.31 144.172 152.075 144.555 151.752C149.169 147.872 147.659 147.955 149.727 144.349C150.248 143.442 153.456 142.385 153.724 142.276C154.705 141.882 154.609 143.262 154.9 143.09C157.283 141.645 154.839 139.702 157.498 137.173C157.585 137.098 157.628 137.842 157.89 137.671C158.707 137.14 159.244 136.317 160.059 135.813C161.925 134.664 163.519 135.221 165.292 132.328C165.517 131.957 163.836 131.135 166.284 128.921C167.255 128.044 171.436 124.024 172.687 122.991C173.947 121.949 173.525 123.13 173.627 123.068C177.314 120.592 176.309 121.976 178.672 121.255C181.022 120.541 178.768 119.057 179.211 118.232C179.642 117.418 182.42 115.629 183.124 115.257C183.837 114.876 183.379 115.806 183.965 115.417C187.898 112.777 184.552 113.061 185.374 111.706C187.313 108.506 190.711 107.975 193.217 105.871C193.913 105.286 193.07 105.47 193.627 104.888C195.81 102.611 197.597 101.764 199.847 98.892C200.019 98.6725 200.4 97.932 200.941 97.1566C201.597 96.2392 202.456 95.278 203.477 94.9505C203.758 94.8574 203.518 95.7456 204.599 94.8868C206.193 93.6229 208.863 91.2823 210.365 89.6631C211.437 88.5018 209.546 89.1671 211.201 87.9676C211.934 87.4371 211.038 88.9099 212.382 87.8914C213.708 86.8903 216.8 83.9859 217.987 82.8564C219.138 81.7603 218.085 81.9117 218.153 81.793C218.589 81.0667 220.649 78.7382 220.831 78.5674C223.054 76.4546 225.24 74.4467 227.372 72.4171C228.429 71.4059 229.469 70.4003 230.397 69.3757C230.851 68.8714 231.283 68.3498 231.556 67.9033C231.691 67.6871 231.77 67.4925 231.789 67.426C231.801 67.3553 231.834 67.4314 231.792 67.3008C228.443 63.0755 219.283 62.7562 212.292 62.4696C211.243 62.4507 211.914 63.1202 211.754 63.1239C208.152 63.2628 211.063 61.6569 208.541 61.0146C208.861 62.3242 207.423 62.0428 204.846 62.1583C203.645 62.2169 204.294 62.7263 204.184 62.7767C202.383 63.5268 201.104 62.5441 200.79 62.3424C199.597 61.6018 198.26 62.4898 197.46 62.0017C196.638 61.518 198.519 60.7654 196.07 60.8038C195.385 61.2782 197.231 62.4689 195.361 62.6915C188.436 63.5125 175.347 63.0362 169.738 63.1819C164.119 63.3197 162.329 63.4895 159.038 63.4698C153.149 63.4353 155.299 64.24 151.689 64.8212C148.024 65.406 149.706 63.1058 149.154 62.6541C148.604 62.2026 148.077 62.7187 147.42 62.4871C146.767 62.2555 148.14 61.8662 146.627 61.8389C145.1 61.8123 141.016 62.8538 140.497 63.3774C139.598 64.2915 140.752 65.1448 138.914 65.3048C138.516 65.3393 137.981 65.3423 137.263 65.3084C137.029 65.2966 137.759 64.677 136.861 64.6615C129.81 64.5548 122.685 64.9396 115.556 65.0429C114.601 65.0546 115.405 64.347 114.85 64.3467C109.06 64.3517 111.125 65.3008 108.06 66.7588C108.616 65.094 106.898 64.225 102.389 64.6051C99.7168 64.8341 100.245 65.4981 98.5992 66.1495C98.127 66.3434 96.1808 66.0411 95.8635 66.4066C94.846 67.5997 96.6972 68.6302 92.1519 68.6061C91.9539 68.6035 92.5158 67.9474 91.8359 67.9817C87.3595 68.219 86.9816 69.4007 82.1911 70.1144C78.4776 70.6672 71.7362 70.8852 67.4623 71.4572C67.3196 69.6337 63.2477 70.7132 61.9053 72.2288C59.1128 72.6635 56.2279 73.2804 53.5159 73.6614C52.6053 73.7891 53.0888 73.1515 52.9639 73.1191C51.0899 72.5958 50.0593 74.0744 49.5073 74.2465C43.2519 76.1338 37.9323 76.5847 32.2782 79.4397C32.0745 79.5454 32.1647 80.84 30.3186 80.522C30.1968 80.4999 31.9562 79.2485 29.1594 80.2191C26.4132 81.1641 21.0919 82.6695 17.8019 85.1765C17.0318 85.7499 15.4162 87.862 13.3661 88.2588C13.0858 88.3125 13.1283 87.8506 12.6987 87.8924C11.3238 88.0359 11.497 89.4665 9.67549 89.4439C8.71064 89.4181 7.36518 89.7866 5.93859 90.6019C4.48849 91.4069 3.32382 93.4694 3.55705 95.5945C3.56637 95.7669 4.49561 96.801 4.72339 98.0048C4.99262 99.6606 5.81674 101.84 6.91774 103.483C7.19283 103.757 7.47846 104.027 7.76495 104.283C8.55389 104.979 8.46369 104.058 8.60698 104.17C14.0559 108.356 17.8237 111.591 23.8533 115.965C25.0064 116.796 28.6795 118.188 30.5747 120.206C32.588 122.37 28.4453 123.411 34.4963 126.355C36.9169 127.524 41.9149 126.02 44.9658 130.248C53.2364 134.68 60.1929 139.977 68.7138 144.072C69.0924 144.254 70.7907 143.972 71.6497 144.483C72.931 145.248 73.3664 146.086 74.2627 146.639C78.0455 148.982 81.7384 150.577 85.434 152.74C86.8322 153.557 86.0716 153.734 87.7373 154.705C89.4093 155.678 90.8677 155.7 92.9807 157.266C94.5943 158.461 95.5988 160.648 97.8236 162.073C98.5998 160.9 100.141 161.791 103.125 163.017C103.7 163.253 103.356 162.506 103.641 162.595C104.81 162.954 105.557 163.828 106.673 164.13C106.943 164.204 107.186 163.791 107.42 163.828C108.285 163.957 109.193 164.488 109.981 165.086L109.945 165.067C111.01 165.83 111.819 166.684 112.056 166.924C113.57 168.491 114.711 168.366 115.997 169.32C117.288 170.273 115.018 169.539 116.593 170.509C119.856 172.519 124.338 174.576 127.854 176.205C129.268 176.857 128.566 175.835 128.775 175.914C131.745 177.092 134.451 179.013 136.581 178.539C137.327 182.432 138.476 179.016 142.441 181.356C142.753 181.54 142.598 183.159 141.221 182.843C139.851 182.53 138.093 181.273 136.183 180.844C135.731 180.745 132.742 181.041 132.382 180.978C129.532 180.479 130.12 178.184 130.04 178.01C129.078 176.071 125.524 176.163 124.722 175.905C121.012 174.72 118.224 173.002 115.179 171.889C113.188 171.155 112.315 172.42 110.863 171.635C109.545 170.921 108.556 170.207 107.66 169.507C107.643 169.498 107.593 169.472 107.576 169.463C105.235 167.522 103.858 165.885 99.8896 165.227C98.728 165.032 98.9002 167.034 96.051 163.954C95.8638 163.756 93.8968 161.291 92.0274 161.115C91.7932 161.093 91.5624 161.52 91.2953 161.418C89.5042 160.719 88.6294 159.786 86.7188 158.926C84.8271 158.076 82.5426 157.106 80.5707 155.801C79.3949 155.023 78.2522 153.334 77.7699 152.805C76.4197 151.305 74.1275 151.2 73.472 149.935C72.8209 148.668 75.4267 148.803 72.9681 146.816C72.2409 147.852 71.3673 148.843 70.5756 149.851C64.6371 146.391 58.9729 142.625 53.0001 139.149C52.2586 138.719 52.6659 139.749 51.8638 139.303C48.4796 137.418 45.8168 135.257 42.2816 133.332C39.5693 131.86 36.2406 130.654 33.3942 129.086C32.4398 126.79 28.1221 124.64 25.2296 122.592C24.2122 121.874 24.4859 121.592 23.8228 121.005C21.3337 118.802 21.9004 120.703 21.0333 120.368C17.3079 118.892 18.6355 116.323 14.8412 113.719C14.662 113.601 11.311 113.062 10.9092 112.872C8.39456 111.755 10.882 112.186 9.62362 111.08C7.74709 109.4 6.41644 107.978 4.30996 106.234C4.19454 106.122 3.88692 105.769 3.79726 105.635C3.41529 105.141 3.0154 104.612 2.59356 104.017C1.88281 103.083 -0.439646 100.431 0.0756702 97.3644C0.143782 96.9824 0.665605 97.1543 0.678715 96.8593C0.826136 94.207 1.15956 92.6849 1.369 91.328C1.63074 89.997 1.80953 88.701 3.29773 87.1613C3.30195 87.1559 3.30621 87.1505 3.3105 87.145C4.68682 85.3824 8.21921 84.1998 9.00138 84.0745C10.9985 83.7166 8.00684 85.1741 7.9935 85.3001C7.59744 86.7646 9.53796 85.1522 11.2091 84.1805C12.2797 85.3385 14.4988 83.8697 12.9462 83.1841C12.7576 83.1162 11.5716 84.0262 11.2091 84.1805C11.7708 81.9804 14.3661 80.1737 17.9468 79.9886C19.6567 79.9104 18.6325 81.1998 22.6906 79.0581C24.5843 78.1048 23.3774 77.4429 24.995 76.4695C28.6945 74.254 34.2563 73.5006 38.3145 72.2155C39.8 71.7439 38.1889 71.5765 39.1847 71.241C41.8758 70.3428 44.3971 70.1738 47.1181 69.3162C47.3596 69.2393 46.6184 68.7741 47.4648 68.5734C53.9762 67.0351 59.7578 66.3727 66.6067 65.2979C69.8858 64.7764 75.8373 63.5961 79.2132 63.2472C85.2605 62.5914 92.5195 62.7282 97.6704 62.0313C100.914 61.5905 100.157 61.0423 101.542 60.4959C104.32 59.4279 109.15 60.5122 109.868 60.6867C109.883 60.692 107.039 61.0616 108.587 61.2582C109.524 61.848 109.836 60.6921 109.868 60.6867C110.356 60.7912 115.993 60.5204 117.133 60.3295C117.746 60.2231 117.361 59.6622 117.682 59.6178C124.611 58.674 131.425 58.125 138.57 57.9676C139.288 57.9521 140.004 57.9402 140.718 57.932C140.855 57.9374 140.681 58.6015 141.001 58.6061C145.453 58.6884 148.284 57.7522 151.947 57.1048C155.605 56.458 158.522 56.4839 160.765 57.5088C163.514 57.2428 167.537 57.5653 169.856 57.7716C172.141 57.9789 172.433 56.692 172.631 56.6585C178.914 55.604 182.58 56.1982 189.165 56.1426C192.271 56.1154 198.498 55.831 201.899 55.7052C204.631 55.5982 206.236 55.9151 208.74 55.783C209.084 55.7661 208.752 55.1897 208.857 55.1705C211.685 54.5706 210.284 55.9221 210.849 56.1872C212.956 57.1725 214.162 57.6797 217.814 57.5381C218.599 57.4998 221.305 55.75 222.94 55.869C225.07 56.0393 224.116 56.5954 226.406 56.8587C226.613 56.8917 226.617 56.4189 228.069 56.7864C230.922 57.8694 234.664 57.6727 238.602 63.872C239.351 65.1618 239.66 67.7824 239.202 69.2336C238.809 70.739 238.31 71.5041 237.895 72.1781C237.067 73.4395 236.375 74.1908 235.697 74.9473C234.353 76.4134 233.107 77.6283 231.881 78.8508C231.287 79.4373 232.556 79.18 231.681 80.0559C227.684 84.0334 223.2 88.1377 219.06 91.5481C218.025 92.3974 218.303 91.4679 217.991 91.5593C216.112 92.1029 215.137 94.7602 214.862 95.0486C211.997 98.0703 209.227 100.574 206.431 103.034C202.65 106.36 198.871 109.573 194.885 113.783C194.53 114.163 192.397 118.074 190.247 118.491C190.108 118.515 187.901 118.947 187.3 120.654C187.262 120.762 188.525 120.417 187.023 121.757C185.504 123.112 183.451 125.636 180.966 127.058C180.192 127.498 177.833 128.083 176.613 130.566C176.538 130.73 175.093 135.096 173.022 135.003C172.683 134.986 171.768 133.672 170.06 136.418C169.736 136.942 170.764 136.452 169.778 137.694C168.261 139.606 165.658 141.497 163.988 144.056C163.7 144.502 162.846 146.796 161 147.424C160.711 147.523 160.728 146.778 160.012 147.377C156.601 150.224 153.47 153.68 149.946 156.512C148.698 157.515 148.705 156.333 147.337 157.311C145.97 158.29 143.383 160.429 142.382 161.909C141.383 163.386 143.7 163.074 141.878 164.939C133.933 173.068 125.165 180.173 116.725 187.752C115.46 188.887 116.821 188.302 114.995 189.985C110.744 193.899 104.558 199.752 98.8564 204.547C95.5313 207.346 92.4116 209.807 89.9569 211.416C84.569 214.949 90.2482 209.245 86.3406 212.151C84.4467 213.562 83.556 216.393 83.1374 216.813C79.2197 220.79 75.8424 222.698 72.0331 226.053C71.2535 226.738 72.4453 226.603 71.7816 227.175C69.4746 229.168 66.7928 230.903 64.4109 232.722C63.3173 233.553 63.86 233.765 62.7812 234.487C60.2129 236.145 58.0733 237.496 54.2208 238.678C53.8708 238.768 55.968 237.286 53.035 238.401C52.1116 238.667 51.1166 239.057 49.0396 238.899C48.0078 238.799 46.515 238.401 45.2292 237.322C43.9505 236.256 43.3141 234.927 43.0161 233.92C42.1755 231.002 41.8482 227.722 41.4084 224.862C41.2236 223.642 40.0674 223.551 40.8691 220.847C41.0505 220.306 42.3389 220.99 41.3216 217.909C41.1265 217.397 39.9814 212.102 41.3374 209.739C41.6762 209.171 43.0033 207.573 43.0396 206.212C43.042 206.016 42.3284 206.693 42.4521 205.513C42.9066 201.349 43.7956 197.103 44.521 192.902C44.7107 191.799 43.7425 193.299 44.0498 191.647C44.8993 187.079 46.4725 181.454 47.8308 177.18C48.3462 175.553 48.5361 176.826 48.6224 176.721C50.0012 175.123 49.1232 173.693 49.2303 173.043C49.9008 169.063 51.3226 166.278 52.2334 162.737C52.4928 161.742 51.7194 162.269 51.7288 162.058C51.862 159.867 52.4112 161.679 52.9114 160.444C54.3004 157.044 55.5108 153.08 56.6232 149.441C57.0337 148.097 55.9023 149.362 56.2658 148.198C57.5648 144.021 59.0059 139.752 60.5847 135.484C61.606 132.725 62.6468 130.051 63.721 127.445C64.2357 126.199 64.4491 127.172 64.6551 126.947C66.0869 125.402 65.9458 122.377 66.0584 121.735C66.5761 118.792 67.4052 117.849 68.1964 115.384C72.0742 103.265 77.8074 88.6594 82.3427 77.4763C88.237 62.9635 93.2436 51.8545 99.2317 38.0772C99.6094 37.2166 98.5784 37.8102 98.9072 37.0409C103.285 27.1688 107.559 17.9785 114.233 8.0464C114.819 7.23974 113.368 8.0532 114.405 6.62575C115.352 5.395 116.296 4.09224 118.481 2.37928C118.955 2.02102 119.685 1.51851 120.539 1.09696C120.98 0.880954 121.386 0.70334 121.976 0.505832C122.608 0.297169 123.31 0.131693 124.075 0.0527288C125.506 -0.128935 127.647 0.15455 129.238 1.0184C130.785 1.82973 131.763 2.83927 132.501 3.82362C132.734 4.16553 132.961 4.50644 133.179 4.84253C133.973 6.06711 132.344 4.84427 133.154 6.07461C135.01 8.90915 137.067 11.8651 139.116 14.6537C139.986 15.8376 139.286 13.6225 140.378 15.2013C147.774 25.9282 154.444 36.8459 159.835 48.8444C160.2 49.6615 159.349 50.9878 160.464 52.5622C160.869 52.5147 161.263 52.3014 161.655 52.17C170.524 68.8423 177.45 86.2943 183.205 104.366C183.447 105.13 183.718 103.589 184.189 105.065C186.173 111.323 188.034 117.494 189.389 123.944C189.891 126.334 190.319 128.715 190.664 131.179C190.791 132.093 189.443 131.886 190.19 134.478C190.329 134.933 191.288 138.845 191.747 139.838C191.814 139.971 192.267 139.131 192.523 140.417C193.989 147.879 194.942 155.911 194.942 163.659C194.939 164.92 194.244 163.611 194.234 164.503C194.171 170.768 194.4 177.748 192.849 183.754C191.774 187.736 190.937 186.035 189.445 187.888C189.242 188.149 188.624 190.539 187.974 190.488C186.364 190.375 184.975 188.838 183.223 188.856C182.862 188.858 182.406 191.842 182.054 189.901C182.04 189.767 182.314 187.606 182.133 187.028C182.016 186.624 181.243 187.117 181.153 186.335C181.057 185.567 181.756 184.886 181.675 183.613C181.573 182.358 180.79 182.767 181.046 180.36ZM180.237 58.7221C182.405 59.261 182.645 57.0087 180.341 57.6238C180.229 57.6563 180.124 58.696 180.237 58.7221ZM59.8744 141.171C57.9703 138.909 55.5957 139.195 56.8974 140.849C58.2185 142.512 60.4482 141.854 59.8744 141.171ZM85.2323 154.887C82.7802 152.608 80.7626 155.121 84.1269 156.282C84.3195 156.349 85.3741 155.019 85.2323 154.887ZM190.636 178.2C190.609 178.221 190.399 179.975 190.419 180.014C191.029 181.033 191.454 177.516 190.636 178.2ZM110.651 168.045C110.334 167.665 109.581 167.274 108.924 167.051C108.92 167.049 108.91 167.044 108.906 167.042C108.126 166.755 107.497 166.73 107.963 167.32C108.085 167.475 108.275 167.633 108.499 167.782C108.507 167.787 108.53 167.799 108.537 167.803C109.606 168.473 111.365 168.903 110.651 168.045ZM194.035 106.605C193.978 106.613 193.082 107.417 193.227 107.54C193.703 107.928 194.825 106.632 194.035 106.605ZM155.152 187.592C148.471 184.941 145.398 180.901 152.554 183.986C153.854 184.541 149.414 183.68 151.007 184.544C153.927 186.127 156.555 185.35 159.39 187.359C159.902 187.724 155.531 187.75 155.139 187.591C155.143 187.592 155.148 187.592 155.152 187.592ZM181.564 61.3729C181.61 61.4007 183.309 61.3733 183.345 61.3431C184.242 60.6014 180.82 60.6557 181.564 61.3729ZM140.981 155.048C140.872 155.064 137.949 157.74 137.897 157.869C137.194 160.133 143.099 154.732 140.981 155.048ZM67.3891 71.4196C65.7218 72.4066 63.4643 72.8694 61.9136 72.2282C63.6724 71.9694 65.6099 71.6554 67.3891 71.4196Z" fill="black"/>
</svg>
